<svg id="Capa_1" data-name="Capa 1" xmlns="http://www.w3.org/2000/svg" viewBox="0 0 576 576"><defs><style>.cls-1{fill:#3b5146;}.cls-2{fill:#4f4135;}.cls-3{fill:#3b6241;}.cls-4{fill:#99875f;}.cls-5{fill:#5fa075;}.cls-6{fill:#d5bf80;}.cls-7,.cls-9{isolation:isolate;}.cls-8{fill:#fff;}.cls-9{opacity:0.5;}</style></defs><path class="cls-1" d="M336.67,173.05a143,143,0,1,1-.54,253.62l33.16-62.22a72.5,72.5,0,1,0,.27-129Z" transform="translate(-114.5 -12)"/><path class="cls-2" d="M334.37,425.73A143,143,0,0,1,334.9,174l32.9,62.37a72.51,72.51,0,0,0-.28,127.16Z" transform="translate(-114.5 -12)"/><path class="cls-3" d="M302.85,108.92a215.57,215.57,0,0,1,134-21.67L425.28,156.8a145,145,0,0,0-89.54,14.48Z" transform="translate(-114.5 -12)"/><path class="cls-3" d="M438.8,87.58a215.52,215.52,0,0,1,167.75,143.1l-66.86,22.37a145,145,0,0,0-112.44-95.92Z" transform="translate(-114.5 -12)"/><path class="cls-3" d="M607.18,232.58c37.24,113-24.21,234.86-137.26,272.1a215.52,215.52,0,0,1-167.89-14l33.16-62.22A145,145,0,0,0,540.32,254.94Z" transform="translate(-114.5 -12)"/><path class="cls-4" d="M300.27,489.71a214.92,214.92,0,0,1-36.87-25.12L309.16,411a144.5,144.5,0,0,0,24.27,16.53Z" transform="translate(-114.5 -12)"/><path class="cls-4" d="M261.88,463.3A215.51,215.51,0,0,1,187,300.54l70.5.15a145,145,0,0,0,50.13,109Z" transform="translate(-114.5 -12)"/><path class="cls-4" d="M187,298.54A215.49,215.49,0,0,1,301.08,109.86L334,172.22a145,145,0,0,0-76.46,126.47Z" transform="translate(-114.5 -12)"/><path class="cls-5" d="M269,44.8a287.94,287.94,0,0,1,56.05-22.2l18.72,68a218,218,0,0,0-41.88,16.58Z" transform="translate(-114.5 -12)"/><path class="cls-5" d="M327,22.07a288.29,288.29,0,0,1,59.51-9.63l3.67,70.41A217.48,217.48,0,0,0,345.72,90Z" transform="translate(-114.5 -12)"/><path class="cls-5" d="M388.52,12.34a288.08,288.08,0,0,1,60.19,3.39L437.16,85.28a217.7,217.7,0,0,0-45-2.54Z" transform="translate(-114.5 -12)"/><path class="cls-5" d="M450.69,16.06a288.21,288.21,0,0,1,58.05,16.25L482.51,97.75a217,217,0,0,0-43.38-12.14Z" transform="translate(-114.5 -12)"/><path class="cls-5" d="M510.6,33.06a287.32,287.32,0,0,1,53.2,28.35l-39.69,58.27a217.49,217.49,0,0,0-39.75-21.19Z" transform="translate(-114.5 -12)"/><path class="cls-5" d="M565.46,62.54a288.21,288.21,0,0,1,45.86,39.12L560,150a217.74,217.74,0,0,0-34.26-29.24Z" transform="translate(-114.5 -12)"/><path class="cls-5" d="M612.69,103.12a288.45,288.45,0,0,1,36.39,48.07l-60.49,36.22a217.36,217.36,0,0,0-27.18-35.92Z" transform="translate(-114.5 -12)"/><path class="cls-5" d="M650.1,152.91a287.34,287.34,0,0,1,25.2,54.77L608.44,230a218,218,0,0,0-18.82-40.92Z" transform="translate(-114.5 -12)"/><path class="cls-5" d="M675.94,209.57a288.92,288.92,0,0,1,12.83,58.91L618.67,276a218,218,0,0,0-9.59-44Z" transform="translate(-114.5 -12)"/><path class="cls-5" d="M689,270.47a287.91,287.91,0,0,1-.13,60.29L618.78,323a218,218,0,0,0,.1-45Z" transform="translate(-114.5 -12)"/><path class="cls-5" d="M688.63,332.74a287.77,287.77,0,0,1-13.08,58.85l-66.77-22.65a217,217,0,0,0,9.78-44Z" transform="translate(-114.5 -12)"/><path class="cls-5" d="M674.9,393.49a287.64,287.64,0,0,1-25.43,54.66l-60.33-36.48a217.16,217.16,0,0,0,19-40.84Z" transform="translate(-114.5 -12)"/><path class="cls-5" d="M648.44,449.86a288.19,288.19,0,0,1-36.59,47.92l-51.08-48.59a217.93,217.93,0,0,0,27.34-35.8Z" transform="translate(-114.5 -12)"/><path class="cls-5" d="M610.47,499.23a288.2,288.2,0,0,1-46,38.93L525,479.72a217.23,217.23,0,0,0,34.39-29.09Z" transform="translate(-114.5 -12)"/><path class="cls-5" d="M562.78,539.28a287.94,287.94,0,0,1-53.32,28.12l-26-65.55a217.16,217.16,0,0,0,39.84-21Z" transform="translate(-114.5 -12)"/><path class="cls-5" d="M507.6,568.14a287.84,287.84,0,0,1-58.13,16l-11.25-69.59a217.13,217.13,0,0,0,43.42-12Z" transform="translate(-114.5 -12)"/><path class="cls-5" d="M447.5,584.46a288.21,288.21,0,0,1-60.21,3.14l4-70.39a217.73,217.73,0,0,0,45-2.34Z" transform="translate(-114.5 -12)"/><path class="cls-5" d="M385.3,587.49a288.84,288.84,0,0,1-59.48-9.88l19-67.9a217.19,217.19,0,0,0,44.43,7.39Z" transform="translate(-114.5 -12)"/><path class="cls-5" d="M323.9,577.07a287.49,287.49,0,0,1-56-22.44l33.15-62.22a217.8,217.8,0,0,0,41.81,16.77Z" transform="translate(-114.5 -12)"/><path class="cls-6" d="M266.17,553.69a287.54,287.54,0,0,1-49.82-33.94l45.75-53.63a218.07,218.07,0,0,0,37.23,25.35Z" transform="translate(-114.5 -12)"/><path class="cls-6" d="M214.82,518.45a288,288,0,0,1-41.36-43.85l56.21-42.55a217.41,217.41,0,0,0,30.91,32.77Z" transform="translate(-114.5 -12)"/><path class="cls-6" d="M172.25,473a288.74,288.74,0,0,1-31-51.72l64.05-29.47a217.3,217.3,0,0,0,23.14,38.65Z" transform="translate(-114.5 -12)"/><path class="cls-6" d="M140.44,419.46a288.15,288.15,0,0,1-19.12-57.17l68.88-15A217.21,217.21,0,0,0,204.49,390Z" transform="translate(-114.5 -12)"/><path class="cls-6" d="M120.89,360.33a288.21,288.21,0,0,1-6.39-59.94l70.5.15a218.12,218.12,0,0,0,4.77,44.78Z" transform="translate(-114.5 -12)"/><path class="cls-6" d="M114.5,298.39a288.23,288.23,0,0,1,6.65-59.93L190,253.77a218.08,218.08,0,0,0-5,44.77Z" transform="translate(-114.5 -12)"/><path class="cls-6" d="M121.58,236.51A288.43,288.43,0,0,1,141,179.42l63.92,29.74a217.68,217.68,0,0,0-14.48,42.65Z" transform="translate(-114.5 -12)"/><path class="cls-6" d="M141.8,177.61A288.06,288.06,0,0,1,173,126l56,42.78a217,217,0,0,0-23.31,38.55Z" transform="translate(-114.5 -12)"/><path class="cls-6" d="M174.21,124.43a287.21,287.21,0,0,1,41.55-43.68l45.53,53.83a217.39,217.39,0,0,0-31.05,32.63Z" transform="translate(-114.5 -12)"/><path class="cls-6" d="M217.29,79.46a287.8,287.8,0,0,1,50-33.73l32.89,62.36a217,217,0,0,0-37.34,25.2Z" transform="translate(-114.5 -12)"/><g id="labels"><g class="cls-7"><g class="cls-7"><path class="cls-8" d="M491.28,283.05h1.9l3,9.16h-1.72l-1.38-4.88c-.29-1-.56-2-.83-3h-.05c-.26,1-.53,2.05-.82,3l-1.42,4.87h-1.66Zm-1.23,5.4h4.31v1.28H490Z" transform="translate(-114.5 -12)"/><path class="cls-8" d="M497.15,285.34h1.33l.12,1.22h0a2.36,2.36,0,0,1,2-1.39,1.69,1.69,0,0,1,.78.15l-.29,1.4a2.23,2.23,0,0,0-.7-.12c-.55,0-1.21.37-1.63,1.42v4.2h-1.61Z" transform="translate(-114.5 -12)"/><path class="cls-8" d="M501.63,290.39c0-1.48,1.23-2.24,4.05-2.54,0-.74-.31-1.36-1.24-1.36a3.82,3.82,0,0,0-1.94.68l-.59-1.08a5.33,5.33,0,0,1,2.82-.9c1.73,0,2.57,1.07,2.56,3v4.08H506l-.12-.76h0a3.34,3.34,0,0,1-2.14.93A1.94,1.94,0,0,1,501.63,290.39Zm4.05,0v-1.55c-1.87.24-2.49.72-2.49,1.42s.41.87,1,.87A2.17,2.17,0,0,0,505.68,290.4Zm-1.75-7L506,281l1.1,1.07-2.37,2.17Z" transform="translate(-114.5 -12)"/><path class="cls-8" d="M510.68,291.53h-.05l-.14.72h-1.27l0-9.89h1.62v2.56l-.05,1.14a3.15,3.15,0,0,1,2-.85c1.72,0,2.71,1.38,2.71,3.5,0,2.36-1.42,3.72-3,3.72A2.81,2.81,0,0,1,510.68,291.53Zm3.16-2.8c0-1.37-.44-2.19-1.49-2.19a2.19,2.19,0,0,0-1.51.77v3.21a2.12,2.12,0,0,0,1.38.57C513.13,291.09,513.84,290.29,513.84,288.73Z" transform="translate(-114.5 -12)"/><path class="cls-8" d="M516.94,283.27a1,1,0,1,1,1,.91A.92.92,0,0,1,516.94,283.27Zm.18,2.12h1.61v6.88H517.1Z" transform="translate(-114.5 -12)"/><path class="cls-8" d="M520.32,288.84a3.41,3.41,0,0,1,3.46-3.61,2.92,2.92,0,0,1,2,.78l-.78,1.05a1.7,1.7,0,0,0-1.15-.51c-1.11,0-1.87.91-1.88,2.29s.75,2.29,1.82,2.29a2.29,2.29,0,0,0,1.43-.59l.65,1.07a3.39,3.39,0,0,1-2.25.84A3.28,3.28,0,0,1,520.32,288.84Z" transform="translate(-114.5 -12)"/><path class="cls-8" d="M526.73,290.44c0-1.47,1.23-2.24,4-2.54,0-.74-.31-1.35-1.24-1.35a3.72,3.72,0,0,0-1.94.67l-.59-1.08a5.33,5.33,0,0,1,2.83-.89c1.72,0,2.56,1.06,2.56,3v4.07h-1.32l-.13-.76h0a3.38,3.38,0,0,1-2.14.92A1.93,1.93,0,0,1,526.73,290.44Zm4,0v-1.54c-1.87.23-2.49.71-2.49,1.41s.41.87,1,.87A2.13,2.13,0,0,0,530.78,290.45Z" transform="translate(-114.5 -12)"/></g></g><g class="cls-7"><g class="cls-7"><path class="cls-8" d="M270.32,282.58h3.08c1.91,0,3.38.68,3.37,2.72s-1.47,2.86-3.38,2.86h-1.46v3.58H270.3Zm2.91,4.29c1.25,0,1.94-.52,1.94-1.56s-.68-1.42-1.94-1.42h-1.29v3Zm-.14.86,1.18-1,2.85,5h-1.83Z" transform="translate(-114.5 -12)"/><path class="cls-8" d="M277.86,288.32a3.29,3.29,0,1,1,3.26,3.61A3.33,3.33,0,0,1,277.86,288.32Zm4.88,0c0-1.38-.6-2.3-1.6-2.3s-1.62.92-1.62,2.3.6,2.28,1.61,2.29S282.74,289.71,282.74,288.33Z" transform="translate(-114.5 -12)"/><path class="cls-8" d="M287.37,291.05h-.05l-.14.73h-1.27l0-9.89h1.61v2.56l-.05,1.15a3.09,3.09,0,0,1,2-.86c1.72,0,2.71,1.39,2.7,3.5,0,2.36-1.41,3.72-2.94,3.72A2.71,2.71,0,0,1,287.37,291.05Zm3.16-2.8c0-1.37-.45-2.18-1.5-2.18a2.13,2.13,0,0,0-1.5.77V290a2.21,2.21,0,0,0,1.38.58C289.82,290.62,290.52,289.81,290.53,288.25Z" transform="translate(-114.5 -12)"/><path class="cls-8" d="M293.72,289.22v-4.31h1.61V289c0,1.13.32,1.56,1.07,1.56s1-.28,1.52-.95v-4.71h1.62l0,6.88h-1.32l-.12-1h0a2.8,2.8,0,0,1-2.21,1.17C294.35,292,293.71,291,293.72,289.22Z" transform="translate(-114.5 -12)"/><path class="cls-8" d="M300.89,291l.75-1a3,3,0,0,0,1.9.77c.75,0,1.11-.35,1.11-.82s-.75-.83-1.48-1.12c-.9-.34-1.93-.86-1.93-2s1-2.05,2.51-2.05a3.8,3.8,0,0,1,2.29.83l-.75,1a2.57,2.57,0,0,0-1.5-.6c-.69,0-1,.33-1,.76s.69.75,1.43,1c.93.35,2,.8,2,2.08s-.94,2.13-2.68,2.13A4.31,4.31,0,0,1,300.89,291Z" transform="translate(-114.5 -12)"/><path class="cls-8" d="M307.57,289.5v-3.28h-1V285l1.07-.07.19-1.88h1.34v1.87H311v1.28h-1.76v3.27c0,.81.31,1.21,1,1.21a2.5,2.5,0,0,0,.72-.15l.27,1.18a4.34,4.34,0,0,1-1.41.25C308.16,292,307.57,291,307.57,289.5Z" transform="translate(-114.5 -12)"/><path class="cls-8" d="M311.72,290c0-1.47,1.23-2.24,4-2.53,0-.74-.31-1.36-1.24-1.36a3.72,3.72,0,0,0-1.94.67l-.59-1.08a5.33,5.33,0,0,1,2.83-.89c1.72,0,2.56,1.06,2.55,3v4.07h-1.33l-.12-.76h0a3.38,3.38,0,0,1-2.14.92A1.93,1.93,0,0,1,311.72,290Zm4,0v-1.54c-1.87.23-2.49.72-2.49,1.41s.41.87,1,.88A2.19,2.19,0,0,0,315.77,290Z" transform="translate(-114.5 -12)"/></g></g><g class="cls-7"><g class="cls-9"><path class="cls-8" d="M275,313c3.89-3.77,6.35-6.22,6.35-8.36a2.16,2.16,0,0,0-2.31-2.41,3.79,3.79,0,0,0-2.73,1.54l-1.41-1.39a5.73,5.73,0,0,1,4.48-2.17,4.11,4.11,0,0,1,4.42,4.3c0,2.5-2.32,5-5.12,8,.74-.07,1.67-.14,2.35-.14h3.43v2.15l-9.45,0Z" transform="translate(-114.5 -12)"/><path class="cls-8" d="M285.94,312.84l1.19-1.62a4.62,4.62,0,0,0,3.27,1.51,2.54,2.54,0,0,0,2.71-2.68,2.41,2.41,0,0,0-2.58-2.62,3.55,3.55,0,0,0-2.23.78l-1.21-.78.44-6.91,7.48,0v2.15l-5.28,0-.3,3.38a3.92,3.92,0,0,1,1.85-.44,4.06,4.06,0,0,1,4.39,4.37,4.71,4.71,0,0,1-4.94,4.81A6.42,6.42,0,0,1,285.94,312.84Z" transform="translate(-114.5 -12)"/><path class="cls-8" d="M297.39,304.42c0-2.87,1.42-4.52,3.44-4.52s3.43,1.66,3.42,4.54-1.41,4.57-3.44,4.57S297.38,307.32,297.39,304.42Zm5,0c0-2.17-.68-3.07-1.6-3.07s-1.61.89-1.62,3.06.68,3.11,1.6,3.11S302.43,306.6,302.43,304.44Zm6.71-4.52h1.55l-7.88,14.9h-1.55Zm-1.44,10.33c0-2.87,1.42-4.53,3.44-4.52s3.43,1.66,3.43,4.54-1.42,4.57-3.45,4.57S307.69,313.15,307.7,310.25Zm5,0c0-2.17-.68-3.07-1.6-3.07s-1.61.89-1.62,3.06.68,3.11,1.61,3.11S312.74,312.43,312.74,310.27Z" transform="translate(-114.5 -12)"/></g></g><g class="cls-7"><g class="cls-9"><path class="cls-8" d="M496.25,302.66l-6.61,0V300.5l9.39,0v1.55c-3.29,4.07-3.86,7-4.12,12.44h-2.57C492.6,309.54,493.54,306.41,496.25,302.66Z" transform="translate(-114.5 -12)"/><path class="cls-8" d="M500.45,312.84l1.18-1.62a4.65,4.65,0,0,0,3.27,1.51,2.53,2.53,0,0,0,2.71-2.68,2.4,2.4,0,0,0-2.57-2.62,3.59,3.59,0,0,0-2.24.78l-1.2-.78.43-6.91,7.49,0v2.15l-5.28,0-.31,3.38a4,4,0,0,1,1.85-.44,4.05,4.05,0,0,1,4.39,4.37,4.7,4.7,0,0,1-4.93,4.81A6.42,6.42,0,0,1,500.45,312.84Z" transform="translate(-114.5 -12)"/><path class="cls-8" d="M511.89,304.42c0-2.87,1.42-4.52,3.45-4.52s3.43,1.66,3.42,4.54-1.42,4.57-3.44,4.57S511.89,307.32,511.89,304.42Zm5.05,0c0-2.17-.68-3.07-1.61-3.07s-1.61.89-1.61,3.06.68,3.11,1.6,3.11S516.93,306.6,516.94,304.44Zm6.71-4.52h1.54l-7.88,14.9h-1.55Zm-1.44,10.33c0-2.87,1.41-4.53,3.44-4.52s3.43,1.66,3.42,4.54-1.42,4.57-3.44,4.57S522.2,313.15,522.21,310.25Zm5,0c0-2.17-.68-3.07-1.6-3.07s-1.62.89-1.62,3.06.68,3.11,1.6,3.11S527.25,312.43,527.25,310.27Z" transform="translate(-114.5 -12)"/></g></g><g class="cls-7"><g class="cls-7"><path class="cls-8" d="M372.23,128.87l-.15-.93,6.12-3.24.14.88-3.44,1.71c-.68.35-1.36.67-2.07,1v0c.79.08,1.53.17,2.29.29l3.8.55.14.84Zm4,.42-.48-3,.66-.1.48,3Z" transform="translate(-114.5 -12)"/><path class="cls-8" d="M377.56,124.25l-.6-.31a2.15,2.15,0,0,0,.34-1.51c-.1-.63-.49-.89-.9-.82s-.61.68-.73,1.24c-.13.72-.34,1.53-1.15,1.66s-1.46-.4-1.63-1.44a2.39,2.39,0,0,1,.3-1.57l.58.3a1.82,1.82,0,0,0-.25,1.16c.1.61.47.83.83.77s.55-.62.66-1.2c.15-.73.31-1.55,1.22-1.69s1.53.38,1.71,1.52A2.86,2.86,0,0,1,377.56,124.25Z" transform="translate(-114.5 -12)"/><path class="cls-8" d="M371.07,120.67a.57.57,0,0,1-.18-1.13.57.57,0,0,1,.18,1.13Zm1.49-.4-.13-.81,4.79-.77.13.81Z" transform="translate(-114.5 -12)"/><path class="cls-8" d="M375.77,117.57c-1,.17-1.72-.65-2.27-2.66-.62.1-1.18.4-1.05,1.19a2.66,2.66,0,0,0,.74,1.34l-.5.41a3.51,3.51,0,0,1-.93-1.78c-.19-1.17.51-1.79,1.7-2l2.94-.47.11.67-.56.16v0a2.51,2.51,0,0,1,.95,1.47A1.33,1.33,0,0,1,375.77,117.57Zm-.41-3-1.33.21c.45,1.58.94,2.06,1.55,2a.74.74,0,0,0,.63-1A2,2,0,0,0,375.36,114.61Z" transform="translate(-114.5 -12)"/></g></g><g class="cls-7"><g class="cls-7"><path class="cls-8" d="M510.67,168l-.06-1.91h.73l-.11,1.9Zm.68.47.61-.71,6.43,2.57-.57.67-3.53-1.51c-.71-.3-1.4-.6-2.11-.93l0,0c.45.64.86,1.27,1.26,1.92l2,3.26-.55.65Zm2.28,3.33,2-2.3.51.44-2,2.29Z" transform="translate(-114.5 -12)"/><path class="cls-8" d="M514.69,166a1.38,1.38,0,0,1-.31-2.13,2.15,2.15,0,0,1,.65-.51l.37.54a1.33,1.33,0,0,0-.45.34c-.3.35-.2.73.27,1.14L519.5,169l-.53.63Zm.19,1,.41-.56,1.18-1.38.51.43-1.63,1.91Z" transform="translate(-114.5 -12)"/><path class="cls-8" d="M517.08,164.37l.44-.52.72.52v0a1.67,1.67,0,0,1,.14-1.7,1.22,1.22,0,0,1,.41-.33l.45.58a1.53,1.53,0,0,0-.37.31,1.47,1.47,0,0,0,0,1.66l2.38,2-.54.62Z" transform="translate(-114.5 -12)"/><path class="cls-8" d="M518.07,160.85a.57.57,0,1,1,.77-.09A.53.53,0,0,1,518.07,160.85Zm1.26.88.53-.63,3.7,3.16-.53.62Z" transform="translate(-114.5 -12)"/><path class="cls-8" d="M522.55,161.71a2.35,2.35,0,0,1-.43-3.44,2,2,0,0,1,1.35-.71l.15.68a1.43,1.43,0,0,0-1,.45,1.66,1.66,0,0,0,.44,2.38,1.62,1.62,0,0,0,2.39.06,1.84,1.84,0,0,0,.37-1.18l.65.08a2.36,2.36,0,0,1-.55,1.6A2.28,2.28,0,0,1,522.55,161.71Z" transform="translate(-114.5 -12)"/><path class="cls-8" d="M526.36,159c-.8-.69-.61-1.73.56-3.45-.48-.4-1.07-.64-1.59,0a2.67,2.67,0,0,0-.54,1.44l-.64-.12a3.61,3.61,0,0,1,.76-1.87c.77-.9,1.69-.77,2.61,0l2.27,1.93-.44.52-.49-.33v0a2.6,2.6,0,0,1-.51,1.68A1.33,1.33,0,0,1,526.36,159Zm2-2.22-1-.88c-.91,1.37-1,2-.49,2.45a.74.74,0,0,0,1.14-.15A2,2,0,0,0,528.36,156.81Z" transform="translate(-114.5 -12)"/></g></g><g class="cls-7"><g class="cls-7"><path class="cls-8" d="M511.11,424.45l.6.72-3.57,5.93-.57-.67,2.06-3.24c.41-.66.82-1.28,1.26-1.93l0,0c-.72.33-1.4.64-2.11.93l-3.55,1.48-.54-.65Zm-3.66,1.71,1.95,2.31-.51.43-1.95-2.31Z" transform="translate(-114.5 -12)"/><path class="cls-8" d="M512.4,428.62l.44.51-.49.51v0a2.14,2.14,0,0,1,1.61.63,1.29,1.29,0,0,1,.16,1.62,2.29,2.29,0,0,1,1.74.62c.64.76.45,1.56-.5,2.36l-2.35,2-.53-.63,2.27-1.92c.69-.58.8-1.05.4-1.53a1.79,1.79,0,0,0-1.35-.44l-2.69,2.27-.53-.63,2.27-1.92c.69-.58.8-1.05.4-1.52a1.77,1.77,0,0,0-1.35-.45l-2.69,2.27-.53-.63Z" transform="translate(-114.5 -12)"/><path class="cls-8" d="M515.66,436.24a2.34,2.34,0,0,1,3.36,0c.8.95.57,2.06-.49,2.95a1.93,1.93,0,0,1-.38.27L516,437a1.61,1.61,0,0,0-.25,2.33,2.14,2.14,0,0,0,1.07.67l-.22.57a2.79,2.79,0,0,1-1.42-.9A2.32,2.32,0,0,1,515.66,436.24Zm2.5,2.34c.74-.63.86-1.31.37-1.89a1.49,1.49,0,0,0-2-.09Zm1.38-3.5h2.19l0,.79-2.19-.21Z" transform="translate(-114.5 -12)"/><path class="cls-8" d="M521,438.73l.43.52-.63.63,0,0a1.66,1.66,0,0,1,1.66.4,1.14,1.14,0,0,1,.26.46l-.65.35a1.57,1.57,0,0,0-.24-.41,1.47,1.47,0,0,0-1.65-.22l-2.38,2-.53-.63Z" transform="translate(-114.5 -12)"/><path class="cls-8" d="M523.2,441.38l.53.63L520,445.15l-.53-.63Zm1.07-1.1a.57.57,0,0,1,.73.87.57.57,0,0,1-.73-.87Z" transform="translate(-114.5 -12)"/><path class="cls-8" d="M522.69,444.56a2.35,2.35,0,0,1,3.46.13,2.09,2.09,0,0,1,.49,1.45l-.69,0a1.41,1.41,0,0,0-.3-1,1.65,1.65,0,0,0-2.41,0,1.61,1.61,0,0,0-.45,2.34,1.78,1.78,0,0,0,1.11.56l-.19.63a2.39,2.39,0,0,1-1.49-.8A2.28,2.28,0,0,1,522.69,444.56Z" transform="translate(-114.5 -12)"/><path class="cls-8" d="M524.72,448.76c.81-.68,1.81-.33,3.32,1.11.47-.41.8-1,.28-1.56a2.61,2.61,0,0,0-1.33-.77l.22-.61a3.48,3.48,0,0,1,1.72,1.05c.77.9.49,1.79-.44,2.57l-2.27,1.93-.44-.52.4-.43,0,0a2.56,2.56,0,0,1-1.57-.77A1.32,1.32,0,0,1,524.72,448.76Zm1.87,2.33,1-.88c-1.2-1.11-1.86-1.27-2.33-.87a.74.74,0,0,0,0,1.15A2,2,0,0,0,526.59,451.09Z" transform="translate(-114.5 -12)"/></g></g><g class="cls-7"><g class="cls-7"><path class="cls-8" d="M289.29,461.66l.53-.78,6.67,1.86-.5.73-3.67-1.12c-.74-.21-1.45-.45-2.2-.7l0,0c.52.59,1,1.17,1.46,1.78l2.38,3-.48.71Zm2.63,3.06,1.7-2.49.55.37-1.7,2.5Z" transform="translate(-114.5 -12)"/><path class="cls-8" d="M293,459.3l.38-.56.62.34v0a2.18,2.18,0,0,1,.17-1.71,1.31,1.31,0,0,1,1.53-.59,2.29,2.29,0,0,1,.13-1.84c.56-.83,1.38-.85,2.4-.15l2.55,1.73-.46.68-2.46-1.67c-.75-.51-1.23-.5-1.58,0a1.77,1.77,0,0,0-.07,1.42l2.91,2-.46.68-2.46-1.67c-.75-.51-1.23-.49-1.58,0a1.84,1.84,0,0,0-.06,1.43l2.9,2L297,462Z" transform="translate(-114.5 -12)"/><path class="cls-8" d="M297.27,450.69l-.58-2.11.78-.17.38,2.16Zm2.16,3.43a2.34,2.34,0,0,1-.88-3.24c.7-1,1.83-1.11,3-.32a2.27,2.27,0,0,1,.36.29l-1.84,2.7a1.61,1.61,0,0,0,2.31-.38,2.14,2.14,0,0,0,.36-1.21l.61.06a2.81,2.81,0,0,1-.49,1.61A2.32,2.32,0,0,1,299.43,454.12Zm1.59-3c-.81-.55-1.49-.49-1.92.14a1.49,1.49,0,0,0,.46,2Z" transform="translate(-114.5 -12)"/><path class="cls-8" d="M300.42,448.35l.38-.56.77.44v0a1.67,1.67,0,0,1-.05-1.71,1,1,0,0,1,.38-.37l.5.53a1.53,1.53,0,0,0-.33.34c-.23.34-.26.91.24,1.65l2.57,1.75-.46.68Z" transform="translate(-114.5 -12)"/><path class="cls-8" d="M301,444.74a.57.57,0,0,1,.64-.93.57.57,0,0,1-.64.93Zm1.35.74.46-.68,4,2.74-.47.68Z" transform="translate(-114.5 -12)"/><path class="cls-8" d="M305.56,445.12a2.35,2.35,0,0,1-.79-3.37,2,2,0,0,1,1.27-.86l.21.66a1.44,1.44,0,0,0-.9.55,1.67,1.67,0,0,0,.69,2.32,1.62,1.62,0,0,0,2.38-.2,1.77,1.77,0,0,0,.25-1.22l.65,0a2.35,2.35,0,0,1-.37,1.65A2.3,2.3,0,0,1,305.56,445.12Z" transform="translate(-114.5 -12)"/><path class="cls-8" d="M309.07,442c-.88-.6-.8-1.65.18-3.49-.52-.35-1.13-.52-1.58.14a2.69,2.69,0,0,0-.39,1.49l-.64-.05a3.58,3.58,0,0,1,.55-1.94c.67-1,1.6-.95,2.6-.27l2.46,1.68-.38.56-.52-.27,0,0a2.58,2.58,0,0,1-.32,1.73A1.32,1.32,0,0,1,309.07,442Zm1.74-2.43-1.12-.76c-.75,1.46-.73,2.14-.22,2.49a.74.74,0,0,0,1.12-.27A2,2,0,0,0,310.81,439.61Z" transform="translate(-114.5 -12)"/></g></g><g class="cls-7"><g class="cls-7"><path class="cls-8" d="M226.78,377.12l.75-1.76.66.31-.9,1.67Zm.42.71.85-.39,4.76,5-.8.37L229.44,380c-.52-.57-1-1.13-1.52-1.73h0c.14.78.24,1.52.34,2.28l.48,3.81-.78.36Zm.67,4,2.74-1.26.28.6-2.74,1.27Z" transform="translate(-114.5 -12)"/><path class="cls-8" d="M231,378l.61-.33,1.65-.76.28.61-2.28,1.05Zm.26-1c-.42-.9-.27-1.66.62-2.06a2,2,0,0,1,.8-.19l.1.64a1.39,1.39,0,0,0-.55.12c-.42.19-.49.58-.22,1.15l2.35,5.1-.75.35Z" transform="translate(-114.5 -12)"/><path class="cls-8" d="M234.12,376.52l.61-.28.44.77h0a1.67,1.67,0,0,1,.84-1.49,1.13,1.13,0,0,1,.51-.13l.16.72a1.39,1.39,0,0,0-.46.13c-.37.17-.69.64-.65,1.53l1.31,2.83-.75.34Z" transform="translate(-114.5 -12)"/><path class="cls-8" d="M236.49,373.74a.57.57,0,1,1,.74.25A.54.54,0,0,1,236.49,373.74Zm.78,1.33.75-.34,2,4.41-.75.34Z" transform="translate(-114.5 -12)"/><path class="cls-8" d="M240.2,376.41a2.35,2.35,0,0,1,1.05-3.3,2.06,2.06,0,0,1,1.53-.08l-.15.67a1.44,1.44,0,0,0-1.06,0,1.65,1.65,0,0,0-.6,2.34,1.62,1.62,0,0,0,2.14,1.06,1.73,1.73,0,0,0,.83-.92l.56.36a2.38,2.38,0,0,1-1.17,1.21A2.28,2.28,0,0,1,240.2,376.41Z" transform="translate(-114.5 -12)"/><path class="cls-8" d="M244.79,375.57c-.44-1,.16-1.82,2-2.89-.26-.57-.7-1-1.42-.7a2.73,2.73,0,0,0-1.1,1.08l-.53-.38a3.52,3.52,0,0,1,1.47-1.37c1.08-.5,1.86,0,2.37,1.11l1.24,2.71-.62.28-.3-.5h0a2.57,2.57,0,0,1-1.16,1.31A1.32,1.32,0,0,1,244.79,375.57Zm2.74-1.18-.56-1.22c-1.4.86-1.74,1.45-1.48,2a.75.75,0,0,0,1.1.35A2,2,0,0,0,247.53,374.39Z" transform="translate(-114.5 -12)"/></g></g><g class="cls-7"><g class="cls-7"><path class="cls-8" d="M242.32,200.16l.8.49-1.49,6.76-.76-.45.92-3.73c.17-.75.37-1.48.58-2.23l0,0c-.56.54-1.11,1.05-1.69,1.55l-2.89,2.54-.73-.44ZM239.4,203l2.58,1.57-.34.57-2.58-1.57Z" transform="translate(-114.5 -12)"/><path class="cls-8" d="M242.38,207.22,243,207a2.15,2.15,0,0,0,.93,1.23c.54.33,1,.2,1.2-.15s-.11-.91-.47-1.36-.94-1.25-.51-2a1.46,1.46,0,0,1,2.14-.31,2.4,2.4,0,0,1,1,1.25l-.6.25A1.8,1.8,0,0,0,246,205c-.52-.32-.93-.19-1.13.13s.13.82.49,1.28,1,1.23.51,2a1.55,1.55,0,0,1-2.27.31A2.87,2.87,0,0,1,242.38,207.22Z" transform="translate(-114.5 -12)"/><path class="cls-8" d="M248.65,206l.71.43-2.52,4.16-.7-.43Zm.67-1.38a.57.57,0,0,1,1,.58.53.53,0,0,1-.76.16A.52.52,0,0,1,249.32,204.6Z" transform="translate(-114.5 -12)"/><path class="cls-8" d="M248.64,210.18c.55-.91,1.6-.89,3.49,0,.32-.53.46-1.16-.22-1.57a2.68,2.68,0,0,0-1.51-.3v-.65a3.61,3.61,0,0,1,2,.44c1,.62,1,1.55.41,2.59l-1.55,2.55-.58-.35.24-.54h0a2.61,2.61,0,0,1-1.74-.23A1.33,1.33,0,0,1,248.64,210.18Zm2.51,1.61.7-1.16c-1.49-.67-2.17-.62-2.49-.08a.74.74,0,0,0,.33,1.1A2,2,0,0,0,251.15,211.79Z" transform="translate(-114.5 -12)"/></g></g><g class="cls-7"><g class="cls-7"><path class="cls-8" d="M314.35,84.34l-.3-.77,6.1-2.42.3.78Z" transform="translate(-114.5 -12)"/><path class="cls-8" d="M315,81.34l-.25-.63.62-.32v0A2.3,2.3,0,0,1,314,79.15c-.38-1,.07-1.62,1.22-2.08l2.86-1.13.3.76-2.76,1.1c-.84.33-1.1.73-.86,1.32s.54.69,1.18,1l3.27-1.29.3.76Z" transform="translate(-114.5 -12)"/><path class="cls-8" d="M315.37,75.68a2.3,2.3,0,0,1-3.15-1,2,2,0,0,1,0-1.47l-.77.33-1.74.69-.3-.76,6.62-2.62.25.63-.51.27v0A2.16,2.16,0,0,1,317,72.88C317.45,74,316.88,75.09,315.37,75.68Zm-.15-3.62-2.37.93a1.7,1.7,0,0,0,0,1.29c.28.72,1.21,1,2.23.61s1.55-1.13,1.24-1.92A1.66,1.66,0,0,0,315.22,72.06Z" transform="translate(-114.5 -12)"/><path class="cls-8" d="M313.34,70.54a2.27,2.27,0,1,1,1.53-3A2.33,2.33,0,0,1,313.34,70.54ZM312,67.14c-1,.41-1.53,1.21-1.22,2s1.22,1,2.25.62,1.52-1.22,1.22-2S313,66.73,312,67.14Z" transform="translate(-114.5 -12)"/><path class="cls-8" d="M308.94,66.06l-.25-.64.63-.32v0A2.31,2.31,0,0,1,308,63.86c-.38-1,.06-1.62,1.22-2.07L312,60.65l.3.77-2.76,1.09c-.84.33-1.1.73-.87,1.33s.55.69,1.19,1l3.27-1.3.3.77Z" transform="translate(-114.5 -12)"/><path class="cls-8" d="M309.33,60.41a2.34,2.34,0,0,1-3.18-1.09c-.46-1.15.11-2.13,1.4-2.64a2.06,2.06,0,0,1,.45-.14l1.21,3a1.61,1.61,0,0,0,1-2.12,2.06,2.06,0,0,0-.81-1l.4-.48a2.93,2.93,0,0,1,1.05,1.31A2.32,2.32,0,0,1,309.33,60.41Zm-1.62-3c-.91.36-1.24,1-1,1.67a1.49,1.49,0,0,0,1.91.74Z" transform="translate(-114.5 -12)"/><path class="cls-8" d="M309.3,55.28l-.65-.18a2.23,2.23,0,0,0,0-1.55c-.24-.59-.67-.76-1.06-.61s-.45.8-.44,1.37c0,.73,0,1.57-.77,1.87a1.46,1.46,0,0,1-1.9-1,2.42,2.42,0,0,1-.05-1.61l.63.17a1.86,1.86,0,0,0,0,1.19c.22.57.63.72,1,.58s.39-.73.38-1.31c0-.75,0-1.58.83-1.92s1.57.05,2,1.11A2.88,2.88,0,0,1,309.3,55.28Z" transform="translate(-114.5 -12)"/><path class="cls-8" d="M302.19,53.17a.57.57,0,0,1-.41-1.06.57.57,0,0,1,.41,1.06Zm1.37-.71-.3-.76,4.52-1.79.3.76Z" transform="translate(-114.5 -12)"/><path class="cls-8" d="M306.11,49.13c-1,.39-1.81-.26-2.78-2.1-.58.23-1.07.64-.78,1.38a2.75,2.75,0,0,0,1,1.15l-.4.51a3.56,3.56,0,0,1-1.3-1.54c-.43-1.1.12-1.86,1.24-2.3l2.77-1.1.25.63-.51.28v0a2.58,2.58,0,0,1,1.24,1.24A1.31,1.31,0,0,1,306.11,49.13Zm-1-2.8-1.25.5c.78,1.44,1.35,1.8,1.93,1.57a.74.74,0,0,0,.41-1.07A2,2,0,0,0,305.08,46.33Z" transform="translate(-114.5 -12)"/></g></g><g class="cls-7"><g class="cls-7"><path class="cls-8" d="M361,59.73l-.13-.82,6.48-1,.13.82Z" transform="translate(-114.5 -12)"/><path class="cls-8" d="M362.31,56.94l-.1-.67.68-.18v0a2.33,2.33,0,0,1-1.07-1.48c-.16-1,.42-1.57,1.64-1.76l3-.5.13.82-2.93.47c-.9.14-1.24.48-1.13,1.11s.38.79.95,1.19l3.47-.56.13.81Z" transform="translate(-114.5 -12)"/><path class="cls-8" d="M363.9,51.49A2.3,2.3,0,0,1,361,49.83a2,2,0,0,1,.34-1.44l-.82.17-1.84.3-.13-.81,7-1.14.11.67-.55.16v0a2.1,2.1,0,0,1,.92,1.34C366.29,50.31,365.5,51.23,363.9,51.49Zm.63-3.57-2.52.4a1.74,1.74,0,0,0-.31,1.26c.13.76,1,1.25,2.06,1.08s1.76-.78,1.62-1.62A1.68,1.68,0,0,0,364.53,47.92Z" transform="translate(-114.5 -12)"/><path class="cls-8" d="M359.07,46.45a.57.57,0,1,1,.43-.64A.53.53,0,0,1,359.07,46.45Zm1.49-.39-.14-.81,4.8-.78.13.82Z" transform="translate(-114.5 -12)"/><path class="cls-8" d="M363.76,43.36c-1,.16-1.71-.65-2.26-2.66-.62.1-1.18.4-1.06,1.18a2.67,2.67,0,0,0,.75,1.35l-.5.41a3.52,3.52,0,0,1-.94-1.78c-.19-1.17.51-1.79,1.71-2l2.94-.47.11.67-.57.16v0a2.58,2.58,0,0,1,.95,1.47A1.33,1.33,0,0,1,363.76,43.36Zm-.4-3-1.33.21c.45,1.58.93,2.06,1.55,2a.75.75,0,0,0,.63-1A2,2,0,0,0,363.36,40.4Z" transform="translate(-114.5 -12)"/></g></g><g class="cls-7"><g class="cls-7"><path class="cls-8" d="M417.47,60.32l-4.12,1.74,0-.89,1.89-.74,1.47-.55v0c-.48-.26-.92-.51-1.39-.74l-1.8-1,.05-.86,3.9,2.19,2.53.15,0,.83Z" transform="translate(-114.5 -12)"/><path class="cls-8" d="M417.75,57.48a2.35,2.35,0,0,1-2.43-2.32c.07-1.24,1-1.89,2.39-1.81a2.72,2.72,0,0,1,.46.06L418,56.68a1.61,1.61,0,0,0,1.78-1.52,2.1,2.1,0,0,0-.32-1.23l.56-.26a2.86,2.86,0,0,1,.41,1.63A2.33,2.33,0,0,1,417.75,57.48Zm-.21-3.41c-1-.06-1.52.35-1.57,1.11a1.5,1.5,0,0,0,1.43,1.47Z" transform="translate(-114.5 -12)"/><path class="cls-8" d="M415.62,52l0-.68.71,0v0a2.19,2.19,0,0,1-.74-1.56,1.3,1.3,0,0,1,1-1.29,2.32,2.32,0,0,1-.83-1.65c.06-1,.74-1.44,2-1.37l3.07.18,0,.82-3-.17c-.9,0-1.31.21-1.34.83a1.77,1.77,0,0,0,.68,1.26l3.51.19-.05.83-3-.17c-.91-.05-1.31.21-1.35.83a1.84,1.84,0,0,0,.68,1.26l3.51.19,0,.82Z" transform="translate(-114.5 -12)"/><path class="cls-8" d="M418.49,44.25a2.35,2.35,0,0,1-2.43-2.32c.07-1.24,1-1.89,2.39-1.81a2,2,0,0,1,.47.07l-.19,3.26a1.62,1.62,0,0,0,1.79-1.51,2.22,2.22,0,0,0-.32-1.23l.55-.27a2.86,2.86,0,0,1,.41,1.63A2.31,2.31,0,0,1,418.49,44.25Zm-.2-3.41c-1-.06-1.53.35-1.57,1.11a1.5,1.5,0,0,0,1.42,1.48Z" transform="translate(-114.5 -12)"/><path class="cls-8" d="M416.36,38.8l0-.68.7,0v0a2.32,2.32,0,0,1-.73-1.68c.05-1,.74-1.44,2-1.37l3.07.17-.05.82-3-.16c-.91-.05-1.31.2-1.34.84a1.82,1.82,0,0,0,.67,1.37l3.51.2-.05.82Z" transform="translate(-114.5 -12)"/></g></g><g class="cls-7"><g class="cls-7"><path class="cls-8" d="M464.49,69.08l1-3.64.68.19-.8,2.84,2,.55.67-2.39.68.19-.67,2.39,2.3.65.82-2.94.68.19-1.05,3.74Z" transform="translate(-114.5 -12)"/><path class="cls-8" d="M470.73,65.54l-2.59-.73-.19.7-.6-.17.16-.74-1.29-.47.19-.66,1.31.37.36-1.27.64.18L468.37,64l2.6.73c.57.16.95.07,1.1-.47a1.57,1.57,0,0,0,0-.57h.64a3.18,3.18,0,0,1-.07.92C472.39,65.64,471.66,65.8,470.73,65.54Z" transform="translate(-114.5 -12)"/><path class="cls-8" d="M466.86,61.25a.53.53,0,0,1-.36-.69.53.53,0,1,1,.36.69Zm1.51.27.22-.8L473.27,62l-.22.8Z" transform="translate(-114.5 -12)"/><path class="cls-8" d="M471.28,60.15a2.27,2.27,0,1,1,3.06-1.48A2.33,2.33,0,0,1,471.28,60.15Zm1-3.52c-1.07-.3-2,0-2.18.85s.35,1.55,1.42,1.85,1.95,0,2.17-.85S473.34,56.93,472.27,56.63Z" transform="translate(-114.5 -12)"/><path class="cls-8" d="M470.5,53.93l.18-.66.56.09v0a2.51,2.51,0,0,1-.24-1.67c.34-1.21,1.45-1.6,2.9-1.19s2.26,1.66,2,2.73a2.22,2.22,0,0,1-.91,1.15l.83.2,1.58.45-.22.79Zm3.19-2.64c-1-.29-1.82-.13-2.07.75a2,2,0,0,0,.29,1.43l2.45.69a1.9,1.9,0,0,0,.8-1C475.38,52.38,474.84,51.61,473.69,51.29Z" transform="translate(-114.5 -12)"/><path class="cls-8" d="M470.72,48.38l-1.22-1.81.68-.41,1.05,1.93Zm1.27.2.22-.79,4.68,1.31-.22.79Z" transform="translate(-114.5 -12)"/><path class="cls-8" d="M476,47.47c-1-.28-1.28-1.3-.94-3.36-.6-.16-1.24-.13-1.45.64a2.53,2.53,0,0,0,.11,1.53l-.63.16a3.5,3.5,0,0,1-.1-2c.32-1.14,1.21-1.41,2.38-1.08l2.87.8-.18.65-.58-.09v0a2.52,2.52,0,0,1,.24,1.74A1.31,1.31,0,0,1,476,47.47Zm.88-2.85-1.3-.36c-.25,1.62,0,2.26.58,2.42a.75.75,0,0,0,1-.61A2,2,0,0,0,476.92,44.62Z" transform="translate(-114.5 -12)"/></g></g><g class="cls-7"><g class="cls-7"><path class="cls-8" d="M514,85.35l.39-.73,2.9,1.54v0l-1.62-4,.45-.84,1.24,3,4.69-.18-.43.82-3.93.13.65,1.62,1.83,1-.4.74Z" transform="translate(-114.5 -12)"/><path class="cls-8" d="M520.12,82.64a2.35,2.35,0,0,1-1.23-3.13c.58-1.09,1.7-1.29,2.93-.64a3,3,0,0,1,.39.25L520.67,82a1.62,1.62,0,0,0,2.26-.63,2.12,2.12,0,0,0,.22-1.25h.62a2.9,2.9,0,0,1-.31,1.65A2.33,2.33,0,0,1,520.12,82.64Zm1.25-3.19c-.86-.45-1.54-.32-1.89.35a1.49,1.49,0,0,0,.67,1.94Z" transform="translate(-114.5 -12)"/><path class="cls-8" d="M520.47,76.8l.32-.6.65.27,0,0a2.26,2.26,0,0,1,0-1.82c.48-.91,1.28-1,2.37-.42l2.72,1.45-.39.73L523.58,75c-.8-.43-1.27-.37-1.57.2a1.87,1.87,0,0,0,0,1.52l3.11,1.66-.39.72Z" transform="translate(-114.5 -12)"/><path class="cls-8" d="M521.62,71.38a.53.53,0,0,1-.2-.75.53.53,0,1,1,.2.75Zm1.43.59.38-.73,4.29,2.29-.39.72Z" transform="translate(-114.5 -12)"/><path class="cls-8" d="M527.23,71.76c-.93-.5-1-1.56-.19-3.49-.55-.29-1.18-.39-1.56.31a2.75,2.75,0,0,0-.22,1.52l-.64,0a3.43,3.43,0,0,1,.33-2c.56-1,1.49-1.12,2.56-.55l2.63,1.4-.32.6-.55-.21v0a2.56,2.56,0,0,1-.14,1.75A1.32,1.32,0,0,1,527.23,71.76Zm1.48-2.6-1.19-.64c-.6,1.53-.5,2.21,0,2.5a.75.75,0,0,0,1.09-.39A2,2,0,0,0,528.71,69.16Z" transform="translate(-114.5 -12)"/></g></g><g class="cls-7"><g class="cls-7"><path class="cls-8" d="M547.24,126.39l.66-.77,3.48,1.32,1.34.53,0,0c-.25-.41-.51-.82-.75-1.23L550.14,123l.65-.76,5,4.25-.5.59-2.75-2.34c-.43-.37-1-.93-1.41-1.34l0,0,.8,1.37,1.78,3.14-.36.42-3.39-1.26-1.47-.57,0,0c.47.34,1.11.81,1.55,1.18l2.74,2.34-.49.58Z" transform="translate(-114.5 -12)"/><path class="cls-8" d="M554.82,123.87a2.27,2.27,0,1,1,3.4-.06A2.33,2.33,0,0,1,554.82,123.87Zm2.37-2.77c-.84-.73-1.79-.79-2.33-.15s-.33,1.56.52,2.28,1.78.77,2.32.14S558,121.82,557.19,121.1Z" transform="translate(-114.5 -12)"/><path class="cls-8" d="M559.72,121.2l-1.2-4.38-1.47,1.73-.51-.44,2.15-2.52.33.29,1.2,4.38,1.71-2,.51.43-2.39,2.8Z" transform="translate(-114.5 -12)"/><path class="cls-8" d="M561.83,117.45c-.8-.69-.61-1.73.56-3.45-.47-.4-1.07-.64-1.58,0a2.66,2.66,0,0,0-.55,1.44l-.63-.12a3.59,3.59,0,0,1,.75-1.87c.77-.9,1.7-.77,2.62,0l2.26,1.93-.44.52-.48-.33,0,0a2.6,2.6,0,0,1-.51,1.68A1.33,1.33,0,0,1,561.83,117.45Zm2-2.22-1-.88c-.91,1.37-1,2-.49,2.45a.75.75,0,0,0,1.15-.15A2,2,0,0,0,563.83,115.23Z" transform="translate(-114.5 -12)"/><path class="cls-8" d="M562.56,111.05l.44-.52.58.41,0,0a2.16,2.16,0,0,1,.36-1.69,1.28,1.28,0,0,1,1.57-.42,2.26,2.26,0,0,1,.34-1.82c.65-.76,1.46-.69,2.4.11l2.34,2-.53.62-2.26-1.93c-.69-.58-1.17-.62-1.57-.15a1.76,1.76,0,0,0-.22,1.41l2.67,2.29-.53.62L565.91,110c-.69-.58-1.17-.62-1.57-.15a1.79,1.79,0,0,0-.22,1.41l2.67,2.29-.53.62Z" transform="translate(-114.5 -12)"/><path class="cls-8" d="M571.75,107v0l.33.39-.43.5-5.42-4.63.54-.62,1.48,1.26.64.59a2.47,2.47,0,0,1,.48-1.6c.81-1,2-.84,3.13.13s1.35,2.47.63,3.31A2.14,2.14,0,0,1,571.75,107Zm.2-3.3c-.82-.7-1.6-.89-2.19-.19a1.93,1.93,0,0,0-.34,1.42l1.93,1.65a1.89,1.89,0,0,0,1.16-.57C573,105.39,572.86,104.47,572,103.69Z" transform="translate(-114.5 -12)"/><path class="cls-8" d="M570.27,99.66a.53.53,0,0,1,0-.78.53.53,0,0,1,.77-.09.57.57,0,0,1-.74.87Zm1.26.88.54-.63,3.69,3.15-.53.63Z" transform="translate(-114.5 -12)"/><path class="cls-8" d="M579.07,99.68l-.64-.6a2.19,2.19,0,0,1-.44,1.56c-.79.92-2,.92-3.23-.13a2.3,2.3,0,0,1-.58-3.26,1.94,1.94,0,0,1,1.34-.68l0,0-.3-.36.42-.5,5.26,4.49-.53.62Zm-1.18-1L576,97a1.67,1.67,0,0,0-1.15.57c-.51.59-.34,1.55.5,2.27s1.73.84,2.28.19A1.7,1.7,0,0,0,577.89,98.67Z" transform="translate(-114.5 -12)"/><path class="cls-8" d="M579,96.49l-2.34-2,.53-.62,2.27,1.92c.68.59,1.16.64,1.57.15a1.65,1.65,0,0,0,.22-1.53l-2.62-2.23.54-.63,3.69,3.16-.44.51-.62-.44,0,0a2.07,2.07,0,0,1-.37,1.79C580.78,97.37,580,97.29,579,96.49Z" transform="translate(-114.5 -12)"/><path class="cls-8" d="M581.88,92.16a2.35,2.35,0,0,1-.53-3.32c.81-.94,1.94-.9,3,0a3.39,3.39,0,0,1,.33.34l-2.13,2.48a1.61,1.61,0,0,0,2.34-.12,2.16,2.16,0,0,0,.49-1.17l.6.12a2.86,2.86,0,0,1-.65,1.55A2.34,2.34,0,0,1,581.88,92.16Zm1.9-2.84c-.74-.64-1.43-.65-1.92-.07a1.5,1.5,0,0,0,.24,2Z" transform="translate(-114.5 -12)"/></g></g><g class="cls-7"><g class="cls-7"><path class="cls-8" d="M589.49,156.16l-1.59,1.2-.42-.56,3.83-2.9.42.56-1.58,1.2,3.53,4.67-.66.5Z" transform="translate(-114.5 -12)"/><path class="cls-8" d="M594.56,158.08c-.64-.84-.23-1.82,1.28-3.25-.38-.49-.9-.85-1.54-.37a2.75,2.75,0,0,0-.84,1.29l-.59-.25a3.46,3.46,0,0,1,1.13-1.66c1-.72,1.83-.39,2.56.57l1.79,2.38-.54.41-.4-.42,0,0a2.53,2.53,0,0,1-.85,1.52A1.32,1.32,0,0,1,594.56,158.08Zm2.42-1.74-.81-1.07c-1.18,1.13-1.38,1.78-1,2.28a.74.74,0,0,0,1.14.11A2,2,0,0,0,597,156.34Z" transform="translate(-114.5 -12)"/><path class="cls-8" d="M596.65,152l.54-.41.48.52,0,0a2.31,2.31,0,0,1,.8-1.64c.82-.62,1.58-.37,2.33.62l1.86,2.46L602,154l-1.79-2.37c-.55-.72-1-.86-1.51-.47a1.82,1.82,0,0,0-.61,1.39l2.12,2.81-.65.49Z" transform="translate(-114.5 -12)"/><path class="cls-8" d="M603.27,152.52,603,148l-1.81,1.37-.4-.54,2.64-2,.27.35.22,4.53,2.11-1.6.4.54-2.94,2.22Z" transform="translate(-114.5 -12)"/><path class="cls-8" d="M606.14,149.31c-.64-.84-.22-1.81,1.29-3.24-.38-.5-.91-.86-1.54-.38a2.68,2.68,0,0,0-.84,1.29l-.6-.25a3.56,3.56,0,0,1,1.14-1.66c.95-.72,1.82-.39,2.55.58l1.8,2.37-.54.41L609,148l0,0a2.65,2.65,0,0,1-.86,1.53A1.32,1.32,0,0,1,606.14,149.31Zm2.43-1.74-.82-1.07c-1.17,1.14-1.37,1.79-1,2.28a.75.75,0,0,0,1.15.11A2.06,2.06,0,0,0,608.57,147.57Z" transform="translate(-114.5 -12)"/><path class="cls-8" d="M608.23,143.22l.54-.41.48.52,0,0a2.38,2.38,0,0,1,.81-1.64c.81-.61,1.58-.36,2.33.62l1.85,2.46-.65.49-1.79-2.36c-.55-.73-1-.87-1.52-.48a1.85,1.85,0,0,0-.6,1.39l2.12,2.81-.66.5Z" transform="translate(-114.5 -12)"/><path class="cls-8" d="M611.55,138.79a.57.57,0,1,1,.77.08A.53.53,0,0,1,611.55,138.79Zm1,1.13.66-.5,2.93,3.88-.65.49Z" transform="translate(-114.5 -12)"/><path class="cls-8" d="M616.49,141.49c-.64-.85-.23-1.82,1.28-3.25-.38-.5-.91-.85-1.54-.37a2.64,2.64,0,0,0-.84,1.29l-.6-.26a3.61,3.61,0,0,1,1.14-1.66c1-.71,1.82-.39,2.55.58l1.8,2.37-.54.41-.41-.42,0,0a2.55,2.55,0,0,1-.85,1.53A1.32,1.32,0,0,1,616.49,141.49Zm2.42-1.74-.81-1.08c-1.18,1.14-1.38,1.79-1,2.28a.75.75,0,0,0,1.15.11A2,2,0,0,0,618.91,139.75Z" transform="translate(-114.5 -12)"/></g></g><g class="cls-7"><g class="cls-7"><path class="cls-8" d="M619.75,203.91l.9-6.31-2.86,1.31-.29-.64,3.79-1.74.21.45-.9,6.31,3.17-1.46.29.64-4.1,1.89Z" transform="translate(-114.5 -12)"/><path class="cls-8" d="M624.24,201c-.44-1,.17-1.83,2-2.9-.27-.56-.7-1-1.43-.69a2.64,2.64,0,0,0-1.09,1.08l-.53-.38a3.52,3.52,0,0,1,1.47-1.37c1.07-.5,1.86,0,2.36,1.11l1.25,2.7-.62.29-.3-.5h0a2.61,2.61,0,0,1-1.16,1.31A1.34,1.34,0,0,1,624.24,201Zm2.75-1.18-.57-1.22c-1.39.85-1.73,1.44-1.47,2a.75.75,0,0,0,1.1.35A2,2,0,0,0,627,199.82Z" transform="translate(-114.5 -12)"/><path class="cls-8" d="M627.59,195.5l.62-.29.36.62,0,0a2.23,2.23,0,0,1,1-1.38,1.29,1.29,0,0,1,1.61.28,2.31,2.31,0,0,1,1.07-1.51c.9-.41,1.62,0,2.13,1.11l1.29,2.8-.75.34-1.24-2.7c-.38-.82-.8-1.05-1.36-.79a1.76,1.76,0,0,0-.8,1.18l1.47,3.2-.74.34-1.24-2.7c-.38-.82-.8-1-1.36-.79a1.76,1.76,0,0,0-.8,1.18l1.47,3.2-.75.34Z" transform="translate(-114.5 -12)"/><path class="cls-8" d="M637.64,195.67h0l.14.49-.59.28-3-6.47.75-.34.81,1.76.34.81a2.39,2.39,0,0,1,1.1-1.25c1.14-.53,2.16.07,2.79,1.43.69,1.51.19,2.81-.81,3.27A2.14,2.14,0,0,1,637.64,195.67Zm1.56-2.91c-.45-1-1.08-1.47-1.91-1.09a1.94,1.94,0,0,0-.9,1.14l1.06,2.31a1.89,1.89,0,0,0,1.29,0C639.47,194.75,639.7,193.85,639.2,192.76Z" transform="translate(-114.5 -12)"/><path class="cls-8" d="M639.37,188.4a.53.53,0,0,1,.3-.72.52.52,0,0,1,.73.24.53.53,0,0,1-.29.72A.54.54,0,0,1,639.37,188.4Zm.78,1.32.74-.34,2,4.41-.75.35Z" transform="translate(-114.5 -12)"/><path class="cls-8" d="M643.61,192.09c-.44-1,.17-1.83,2-2.9-.27-.56-.71-1-1.43-.69a2.66,2.66,0,0,0-1.1,1.08l-.52-.38a3.55,3.55,0,0,1,1.46-1.37c1.08-.5,1.87,0,2.37,1.11l1.25,2.7-.62.29-.3-.5h0a2.59,2.59,0,0,1-1.17,1.31A1.33,1.33,0,0,1,643.61,192.09Zm2.75-1.18-.57-1.23c-1.4.86-1.73,1.45-1.47,2a.75.75,0,0,0,1.1.35A2,2,0,0,0,646.36,190.91Z" transform="translate(-114.5 -12)"/></g></g><g class="cls-7"><g class="cls-7"><path class="cls-8" d="M636.37,246.42l1.91-.41c1.3-.28,2.3,0,2.54,1.09a1.44,1.44,0,0,1-.63,1.6v0a1.52,1.52,0,0,1,1.63,1.25c.28,1.26-.58,2.1-2,2.41l-2.05.44Zm2.36,2.35c1.09-.24,1.46-.74,1.31-1.39s-.73-.92-1.72-.7l-1,.21.45,2.08Zm.83,3c1.1-.24,1.66-.78,1.47-1.64s-.87-1-2-.77l-1.11.24.52,2.41Z" transform="translate(-114.5 -12)"/><path class="cls-8" d="M642.57,249.31a2.27,2.27,0,1,1,2.74,2A2.33,2.33,0,0,1,642.57,249.31Zm3.57-.78c-.24-1.09-.95-1.71-1.77-1.53s-1.21,1-1,2.13,1,1.69,1.77,1.51S646.38,249.62,646.14,248.53Z" transform="translate(-114.5 -12)"/><path class="cls-8" d="M648.49,249.5l-1.31-6,.8-.18,1.32,6.06c.06.25.19.32.3.3a.58.58,0,0,0,.17-.06l.25.59a1.39,1.39,0,0,1-.45.18C649,250.52,648.64,250.19,648.49,249.5Z" transform="translate(-114.5 -12)"/><path class="cls-8" d="M649.68,243.7a.57.57,0,0,1,1.11-.24.54.54,0,0,1-.44.64A.54.54,0,0,1,649.68,243.7Zm.47,1.46L651,245l1,4.75-.8.17Z" transform="translate(-114.5 -12)"/><path class="cls-8" d="M651.87,244.79l.83-.18,1.49,2.5.74,1.3h0c0-.48.09-1,.13-1.49l.31-2.89.79-.17-.65,5.11-.93.2Z" transform="translate(-114.5 -12)"/><path class="cls-8" d="M656.65,242.18a.57.57,0,0,1,1.11-.24.54.54,0,0,1-.45.64A.52.52,0,0,1,656.65,242.18Zm.47,1.47.8-.18,1,4.75-.81.17Z" transform="translate(-114.5 -12)"/><path class="cls-8" d="M660,246.7c-.22-1,.56-1.74,2.53-2.41-.13-.61-.46-1.15-1.24-1a2.6,2.6,0,0,0-1.3.82l-.44-.49a3.56,3.56,0,0,1,1.73-1c1.16-.25,1.82.41,2.08,1.59l.63,2.91-.66.15-.19-.56h0a2.61,2.61,0,0,1-1.42,1A1.33,1.33,0,0,1,660,246.7Zm2.94-.56-.29-1.32c-1.55.54-2,1.05-1.87,1.65a.75.75,0,0,0,1,.58A2,2,0,0,0,662.93,246.14Z" transform="translate(-114.5 -12)"/></g></g><g class="cls-7"><g class="cls-7"><path class="cls-8" d="M635.66,301.24c0-2.11,1.26-3.4,2.92-3.4a2.44,2.44,0,0,1,1.8.82l-.46.54a1.76,1.76,0,0,0-1.33-.62c-1.24,0-2.06,1-2.07,2.64s.78,2.69,2,2.69a2,2,0,0,0,1.52-.73l.46.52a2.52,2.52,0,0,1-2,.94C636.88,304.64,635.66,303.37,635.66,301.24Z" transform="translate(-114.5 -12)"/><path class="cls-8" d="M641.31,302.11a2.27,2.27,0,1,1,2.25,2.54A2.33,2.33,0,0,1,641.31,302.11Zm3.65,0c0-1.11-.56-1.87-1.39-1.87s-1.41.76-1.41,1.87.56,1.86,1.4,1.86S645,303.23,645,302.11Z" transform="translate(-114.5 -12)"/><path class="cls-8" d="M647.05,303.57v-6.15h.82v6.21c0,.25.11.35.23.35a.69.69,0,0,0,.18,0l.11.63a1.41,1.41,0,0,1-.47.07C647.3,304.66,647.05,304.27,647.05,303.57Z" transform="translate(-114.5 -12)"/><path class="cls-8" d="M649.24,302.12a2.27,2.27,0,1,1,2.25,2.55A2.33,2.33,0,0,1,649.24,302.12Zm3.65,0c0-1.11-.56-1.87-1.39-1.87s-1.41.75-1.41,1.86.56,1.87,1.4,1.87S652.89,303.24,652.89,302.13Z" transform="translate(-114.5 -12)"/><path class="cls-8" d="M655,299.7h.68l.07.71h0a2.14,2.14,0,0,1,1.52-.82,1.28,1.28,0,0,1,1.34.92,2.3,2.3,0,0,1,1.6-.92c1,0,1.48.67,1.47,1.91v3.07h-.82v-3c0-.91-.28-1.29-.9-1.29a1.73,1.73,0,0,0-1.22.74v3.52H658v-3c0-.9-.29-1.29-.9-1.29a1.78,1.78,0,0,0-1.22.74v3.52H655Z" transform="translate(-114.5 -12)"/><path class="cls-8" d="M664.07,304.08h0l-.08.5h-.65v-7.12h.82v2l0,.87a2.5,2.5,0,0,1,1.53-.68c1.25,0,1.93,1,1.92,2.48,0,1.66-1,2.62-2.11,2.62A2.15,2.15,0,0,1,664.07,304.08Zm2.64-2c0-1.07-.36-1.79-1.27-1.79a1.91,1.91,0,0,0-1.3.66v2.54a1.88,1.88,0,0,0,1.18.51C666.12,304,666.71,303.29,666.71,302.09Z" transform="translate(-114.5 -12)"/><path class="cls-8" d="M668.7,298.2a.57.57,0,0,1,1.14,0,.57.57,0,0,1-1.14,0Zm.15,1.53h.82v4.86h-.82Z" transform="translate(-114.5 -12)"/><path class="cls-8" d="M671,303.33c0-1.06.92-1.58,3-1.8,0-.63-.21-1.23-1-1.23a2.69,2.69,0,0,0-1.45.51l-.32-.56a3.57,3.57,0,0,1,1.9-.63c1.19,0,1.69.79,1.69,2v3h-.68l-.07-.58h0a2.64,2.64,0,0,1-1.61.7A1.33,1.33,0,0,1,671,303.33Zm3,.08v-1.34c-1.63.19-2.18.58-2.19,1.21s.38.77.85.77A1.93,1.93,0,0,0,674,303.41Z" transform="translate(-114.5 -12)"/></g></g><g class="cls-7"><g class="cls-7"><path class="cls-8" d="M626.68,350.59c.45-2.06,2-3,3.58-2.69a2.42,2.42,0,0,1,1.58,1.18l-.56.43a1.81,1.81,0,0,0-1.17-.89c-1.21-.27-2.23.54-2.59,2.14s.19,2.78,1.4,3.06a2,2,0,0,0,1.65-.39l.33.61a2.53,2.53,0,0,1-2.17.48C627.13,354.17,626.21,352.67,626.68,350.59Z" transform="translate(-114.5 -12)"/><path class="cls-8" d="M632,352.65a2.27,2.27,0,1,1,1.65,3A2.33,2.33,0,0,1,632,352.65Zm3.57.79c.24-1.09-.15-1.95-1-2.13s-1.53.44-1.77,1.52.15,1.94,1,2.12S635.33,354.53,635.58,353.44Z" transform="translate(-114.5 -12)"/><path class="cls-8" d="M636.7,355.61l.51-.44a2.23,2.23,0,0,0,1.28.87c.62.14,1-.13,1.1-.53s-.41-.83-.89-1.14-1.29-.88-1.11-1.69a1.47,1.47,0,0,1,1.94-1,2.44,2.44,0,0,1,1.35.86l-.5.43a1.8,1.8,0,0,0-1-.66c-.6-.13-.95.12-1,.49s.38.73.87,1.05,1.33.86,1.13,1.76a1.55,1.55,0,0,1-2,1A2.92,2.92,0,0,1,636.7,355.61Z" transform="translate(-114.5 -12)"/><path class="cls-8" d="M641.47,355.7l.58-2.63-.7-.15.13-.61.75.12.39-1.31.67.15L643,352.6l1.28.28-.14.66-1.29-.29-.58,2.64c-.13.58,0,.95.53,1.08a1.82,1.82,0,0,0,.57,0l0,.64a2.84,2.84,0,0,1-.92,0C641.46,357.35,641.26,356.64,641.47,355.7Z" transform="translate(-114.5 -12)"/><path class="cls-8" d="M644.08,356.52c.23-1,1.23-1.35,3.3-1.12.14-.61.06-1.24-.71-1.42a2.67,2.67,0,0,0-1.53.2l-.19-.62a3.55,3.55,0,0,1,2-.21c1.16.26,1.48,1.14,1.21,2.32l-.64,2.91-.67-.15.06-.58h0a2.58,2.58,0,0,1-1.72.34A1.32,1.32,0,0,1,644.08,356.52Zm2.89.72.3-1.31c-1.64-.17-2.26.1-2.39.71a.73.73,0,0,0,.66.94A1.91,1.91,0,0,0,647,357.24Z" transform="translate(-114.5 -12)"/><path class="cls-8" d="M652.47,353l2,.45c1.31.29,2.14,1,1.84,2.3s-1.35,1.68-2.66,1.39l-1.19-.26-.6,2.7-.82-.18Zm1.21,3.46c1,.22,1.64-.06,1.82-.89s-.29-1.27-1.29-1.49l-1.08-.24-.52,2.38Zm-.14.42.73-.28,1.21,3.79-.92-.21Z" transform="translate(-114.5 -12)"/><path class="cls-8" d="M657.58,355.84l.8.18-1,4.74-.81-.18Zm.18-1.53a.57.57,0,0,1,1.11.25.57.57,0,0,1-1.11-.25Z" transform="translate(-114.5 -12)"/><path class="cls-8" d="M659.1,358.67a2.36,2.36,0,0,1,2.83-2,2.07,2.07,0,0,1,1.27.87l-.53.44a1.41,1.41,0,0,0-.85-.63c-.86-.19-1.65.41-1.89,1.5A1.62,1.62,0,0,0,661,361a1.78,1.78,0,0,0,1.22-.23l.23.62a2.38,2.38,0,0,1-1.67.26A2.29,2.29,0,0,1,659.1,358.67Z" transform="translate(-114.5 -12)"/><path class="cls-8" d="M663.26,360.79c.23-1,1.23-1.35,3.3-1.12.14-.62.06-1.25-.71-1.42a2.76,2.76,0,0,0-1.53.19l-.19-.62a3.55,3.55,0,0,1,2-.2c1.16.26,1.48,1.13,1.22,2.31l-.65,2.91-.66-.14.05-.59h0a2.56,2.56,0,0,1-1.72.33A1.31,1.31,0,0,1,663.26,360.79Zm2.89.72.3-1.32c-1.64-.16-2.26.11-2.39.72a.74.74,0,0,0,.66.94A2,2,0,0,0,666.15,361.51Z" transform="translate(-114.5 -12)"/></g></g><g class="cls-7"><g class="cls-7"><path class="cls-8" d="M617.58,397.24l3.42,1.59-.29.65L618,398.23l-.87,1.87,2.25,1-.3.64-2.25-1.05-1,2.16,2.77,1.28-.3.65-3.52-1.64Z" transform="translate(-114.5 -12)"/><path class="cls-8" d="M620.12,403a2.36,2.36,0,0,1,3.2-1.33,2,2,0,0,1,1,1.11l-.61.32a1.42,1.42,0,0,0-.7-.8,1.66,1.66,0,0,0-2.17,1.06,1.62,1.62,0,0,0,.58,2.32,1.83,1.83,0,0,0,1.24,0l.09.65a2.32,2.32,0,0,1-1.68-.11A2.27,2.27,0,0,1,620.12,403Z" transform="translate(-114.5 -12)"/><path class="cls-8" d="M624.25,405.62l1.3-2.79.75.34-1.26,2.7c-.38.82-.29,1.29.29,1.56a1.61,1.61,0,0,0,1.52-.2l1.46-3.12.74.35-2,4.4-.61-.28.26-.72,0,0a2.06,2.06,0,0,1-1.82.13C623.87,407.54,623.73,406.74,624.25,405.62Z" transform="translate(-114.5 -12)"/><path class="cls-8" d="M628.75,408.28c.45-.95,1.5-1,3.47-.38.27-.57.33-1.2-.39-1.54a2.73,2.73,0,0,0-1.53-.14l-.06-.64a3.53,3.53,0,0,1,2,.23c1.08.5,1.2,1.42.69,2.52l-1.26,2.7-.61-.28.18-.56h0a2.62,2.62,0,0,1-1.75,0A1.33,1.33,0,0,1,628.75,408.28Zm2.68,1.33.57-1.22c-1.56-.51-2.23-.38-2.49.18a.75.75,0,0,0,.44,1.07A2,2,0,0,0,631.43,409.61Z" transform="translate(-114.5 -12)"/><path class="cls-8" d="M633.77,409.34a2.3,2.3,0,0,1,3-1.43,2,2,0,0,1,1,1.08l.32-.77.79-1.69.75.34-3,6.46L636,413l.18-.55h0a2.19,2.19,0,0,1-1.63,0C633.41,412,633.09,410.81,633.77,409.34Zm2.61,2.52,1.07-2.31a1.72,1.72,0,0,0-.86-1c-.7-.32-1.58.1-2.05,1.1s-.34,1.89.43,2.25A1.68,1.68,0,0,0,636.38,411.86Z" transform="translate(-114.5 -12)"/><path class="cls-8" d="M638.79,411.67a2.27,2.27,0,1,1,1,3.26A2.31,2.31,0,0,1,638.79,411.67Zm3.31,1.54c.47-1,.28-1.93-.48-2.28s-1.59.09-2.06,1.1-.27,1.93.49,2.28S641.63,414.22,642.1,413.21Z" transform="translate(-114.5 -12)"/><path class="cls-8" d="M645.06,411.9l.61.29-.3.83h0a1.7,1.7,0,0,1,1.68-.33,1.07,1.07,0,0,1,.42.31l-.44.59a1.36,1.36,0,0,0-.39-.27c-.37-.17-.94-.11-1.59.5l-1.32,2.83-.74-.35Z" transform="translate(-114.5 -12)"/></g></g><g class="cls-7"><g class="cls-7"><path class="cls-8" d="M586.12,437l3,2.29-.43.56-2.34-1.79-1.25,1.64,2,1.51-.43.56-2-1.51-1.44,1.9,2.42,1.84-.43.56-3.09-2.35Z" transform="translate(-114.5 -12)"/><path class="cls-8" d="M586.86,444.58l3.73-4.89.66.5-3.77,4.93c-.15.2-.13.35,0,.42l.15.09-.29.57a1.19,1.19,0,0,1-.42-.23C586.4,445.6,586.44,445.13,586.86,444.58Z" transform="translate(-114.5 -12)"/><path class="cls-8" d="M590.09,447.19l.74-.15a2.56,2.56,0,0,0,.95,1.74c.68.53,1.35.5,1.73,0s.16-1-.16-1.58l-.5-.9a1.84,1.84,0,0,1,0-2.15,1.86,1.86,0,0,1,2.7-.13,2.74,2.74,0,0,1,1,1.81l-.68.16a2.12,2.12,0,0,0-.81-1.39c-.58-.45-1.2-.45-1.55,0s-.07,1,.2,1.52l.5.89a1.83,1.83,0,0,1,0,2.21,2,2,0,0,1-2.91.13A3.13,3.13,0,0,1,590.09,447.19Z" transform="translate(-114.5 -12)"/><path class="cls-8" d="M594.66,450.17c.64-.84,1.69-.71,3.47.37.38-.5.58-1.1,0-1.58a2.63,2.63,0,0,0-1.47-.47l.09-.64a3.52,3.52,0,0,1,1.9.65c.94.72.86,1.65.13,2.61l-1.81,2.37-.54-.41.29-.51h0a2.59,2.59,0,0,1-1.7-.42A1.31,1.31,0,0,1,594.66,450.17ZM597,452l.82-1.07c-1.41-.84-2.09-.85-2.47-.36a.75.75,0,0,0,.21,1.14A2,2,0,0,0,597,452Z" transform="translate(-114.5 -12)"/><path class="cls-8" d="M598.73,453.64l3.73-4.89.65.5-3.76,4.93c-.16.2-.13.35,0,.42l.15.1-.29.56a1.31,1.31,0,0,1-.42-.22C598.27,454.66,598.3,454.2,598.73,453.64Z" transform="translate(-114.5 -12)"/><path class="cls-8" d="M602.56,451.67l.67.52-.94,2.75c-.18.46-.35.95-.52,1.41l0,0,1.23-.86,2.4-1.64.64.49-4.31,2.82-.76-.58Z" transform="translate(-114.5 -12)"/><path class="cls-8" d="M604.24,457.49c.64-.84,1.69-.71,3.47.37.38-.5.58-1.1-.05-1.59a2.7,2.7,0,0,0-1.47-.46l.09-.64a3.52,3.52,0,0,1,1.9.65c.94.72.86,1.65.13,2.61l-1.81,2.37-.54-.41.3-.51h0a2.63,2.63,0,0,1-1.7-.42A1.32,1.32,0,0,1,604.24,457.49Zm2.33,1.87.82-1.07c-1.42-.84-2.1-.85-2.47-.36a.73.73,0,0,0,.2,1.13A2,2,0,0,0,606.57,459.36Z" transform="translate(-114.5 -12)"/><path class="cls-8" d="M608.92,459.6a2.29,2.29,0,0,1,3.22-.76,2,2,0,0,1,.74,1.27l.48-.68,1.13-1.49.66.5-4.32,5.66-.54-.41.29-.5,0,0a2.13,2.13,0,0,1-1.6-.34C608,462.09,607.94,460.88,608.92,459.6Zm2,3,1.55-2a1.7,1.7,0,0,0-.64-1.12c-.62-.47-1.56-.26-2.23.63s-.75,1.77-.07,2.28A1.67,1.67,0,0,0,610.92,462.62Z" transform="translate(-114.5 -12)"/><path class="cls-8" d="M613.32,463a2.27,2.27,0,1,1,.24,3.38A2.33,2.33,0,0,1,613.32,463Zm2.9,2.21c.68-.88.69-1.83,0-2.34s-1.57-.25-2.25.64-.68,1.82,0,2.33S615.54,466.06,616.22,465.17Z" transform="translate(-114.5 -12)"/><path class="cls-8" d="M619.39,464.53l.54.41-.48.74,0,0a1.69,1.69,0,0,1,1.71,0,1.15,1.15,0,0,1,.35.39l-.56.49a1.1,1.1,0,0,0-.33-.35c-.32-.25-.89-.31-1.65.14l-1.9,2.48-.65-.5Z" transform="translate(-114.5 -12)"/></g></g><g class="cls-7"><g class="cls-7"><path class="cls-8" d="M550.35,475.94c1.61-1.37,3.42-1.23,4.54.1a2.49,2.49,0,0,1,.6,2h-.71a1.81,1.81,0,0,0-.44-1.47c-.85-1-2.17-1-3.42.05s-1.54,2.33-.64,3.4a1.74,1.74,0,0,0,1.06.65l1.3-1.1-.9-1.06.53-.45,1.39,1.64-2.11,1.78a2.82,2.82,0,0,1-1.88-1.05C548.55,479.07,548.72,477.31,550.35,475.94Z" transform="translate(-114.5 -12)"/><path class="cls-8" d="M553.34,481.79l2.35-2,.53.63L554,482.35c-.7.59-.82,1-.4,1.54s.73.48,1.47.46l2.63-2.22.53.63-3.71,3.13-.44-.52.54-.54,0,0a2.06,2.06,0,0,1-1.71-.66C552.19,483.37,552.4,482.6,553.34,481.79Z" transform="translate(-114.5 -12)"/><path class="cls-8" d="M556.31,486.1c.81-.68,1.8-.32,3.31,1.11.47-.4.8-.95.29-1.56a2.71,2.71,0,0,0-1.34-.77l.23-.61a3.66,3.66,0,0,1,1.71,1.05c.77.91.49,1.8-.43,2.58l-2.28,1.92-.44-.52.4-.42,0,0a2.62,2.62,0,0,1-1.57-.78A1.33,1.33,0,0,1,556.31,486.1Zm1.87,2.33,1-.87c-1.2-1.12-1.86-1.28-2.34-.88a.74.74,0,0,0,0,1.15A2,2,0,0,0,558.18,488.43Z" transform="translate(-114.5 -12)"/><path class="cls-8" d="M559.94,490l2-1.74-.46-.55.47-.4.53.55,1.1-.8.45.52-1,.88.85,1-.51.44-.85-1-2.07,1.75c-.45.38-.59.75-.23,1.18a1.5,1.5,0,0,0,.46.33l-.37.53a2.66,2.66,0,0,1-.72-.58C558.93,491.34,559.21,490.65,559.94,490Z" transform="translate(-114.5 -12)"/><path class="cls-8" d="M562.41,491.52a2.34,2.34,0,0,1,3.36,0c.8.95.58,2.06-.48,2.95a3.3,3.3,0,0,1-.39.28l-2.11-2.5a1.61,1.61,0,0,0-.25,2.33,2.13,2.13,0,0,0,1.08.67l-.23.57a2.83,2.83,0,0,1-1.42-.9A2.33,2.33,0,0,1,562.41,491.52Zm2.5,2.34c.74-.63.86-1.31.37-1.89a1.48,1.48,0,0,0-2-.09Z" transform="translate(-114.5 -12)"/><path class="cls-8" d="M567.71,494l.44.52-.5.51,0,0a2.19,2.19,0,0,1,1.61.62,1.29,1.29,0,0,1,.16,1.62,2.33,2.33,0,0,1,1.74.63c.64.76.45,1.56-.5,2.36l-2.35,2-.53-.62,2.27-1.92c.69-.59.8-1.06.4-1.53a1.75,1.75,0,0,0-1.35-.45L566.43,500l-.53-.63,2.27-1.92c.69-.59.8-1.05.4-1.53a1.81,1.81,0,0,0-1.35-.44l-2.69,2.27-.53-.63Z" transform="translate(-114.5 -12)"/><path class="cls-8" d="M570.12,502.44c.81-.69,1.8-.33,3.31,1.1.48-.4.8-1,.29-1.56a2.76,2.76,0,0,0-1.33-.77l.22-.6a3.62,3.62,0,0,1,1.72,1c.76.91.48,1.8-.44,2.58l-2.27,1.93-.44-.52.39-.43v0a2.57,2.57,0,0,1-1.58-.78A1.31,1.31,0,0,1,570.12,502.44Zm1.87,2.32,1-.87c-1.2-1.11-1.86-1.28-2.34-.88a.75.75,0,0,0,0,1.16A2,2,0,0,0,572,504.76Z" transform="translate(-114.5 -12)"/><path class="cls-8" d="M573.35,506.7l4.69-4,.53.63-4.73,4c-.2.17-.2.31-.12.41a.83.83,0,0,0,.13.12l-.41.49a1.19,1.19,0,0,1-.36-.31C572.68,507.6,572.81,507.15,573.35,506.7Z" transform="translate(-114.5 -12)"/><path class="cls-8" d="M575,508.23c.81-.68,1.8-.33,3.31,1.11.48-.41.8-.95.29-1.56a2.68,2.68,0,0,0-1.33-.77l.22-.61a3.57,3.57,0,0,1,1.72,1.05c.76.9.49,1.8-.44,2.58L576.52,512l-.44-.52.4-.43,0,0a2.56,2.56,0,0,1-1.57-.77A1.32,1.32,0,0,1,575,508.23Zm1.87,2.33,1-.87c-1.2-1.12-1.86-1.28-2.33-.88a.74.74,0,0,0-.05,1.15A2,2,0,0,0,576.89,510.56Z" transform="translate(-114.5 -12)"/></g></g><g class="cls-7"><g class="cls-7"><path class="cls-8" d="M532.14,539.2l-.65-.33a1.23,1.23,0,0,0,.12-1.34c-.33-.62-.84-.74-1.72-.28l-4,2.13-.39-.74,4.1-2.16a1.76,1.76,0,0,1,2.65.64A1.91,1.91,0,0,1,532.14,539.2Z" transform="translate(-114.5 -12)"/><path class="cls-8" d="M529.51,534.93c-.94.49-1.83-.07-3-1.79-.55.29-1,.75-.62,1.46a2.72,2.72,0,0,0,1.14,1l-.35.55a3.53,3.53,0,0,1-1.45-1.39c-.55-1-.09-1.86,1-2.42l2.64-1.39.31.6-.48.33v0a2.55,2.55,0,0,1,1.37,1.1A1.32,1.32,0,0,1,529.51,534.93Zm-1.33-2.67-1.19.62c.93,1.35,1.54,1.65,2.09,1.36a.74.74,0,0,0,.29-1.11A2,2,0,0,0,528.18,532.26Z" transform="translate(-114.5 -12)"/><path class="cls-8" d="M523.83,531.88l-.31-.6.59-.39,0,0a2.16,2.16,0,0,1-1.43-1,1.28,1.28,0,0,1,.19-1.62,2.24,2.24,0,0,1-1.56-1c-.47-.88-.11-1.61,1-2.19l2.72-1.44.38.73-2.62,1.39c-.8.42-1,.85-.73,1.4a1.83,1.83,0,0,0,1.23.73l3.11-1.64.39.72-2.63,1.39c-.8.42-1,.86-.72,1.4a1.78,1.78,0,0,0,1.22.73l3.12-1.64.38.73Z" transform="translate(-114.5 -12)"/><path class="cls-8" d="M523.29,523.14c-.94.49-1.83-.07-3-1.79-.55.29-1,.75-.62,1.46a2.72,2.72,0,0,0,1.14,1l-.35.55A3.59,3.59,0,0,1,519,523c-.55-1-.09-1.86,1-2.42l2.64-1.4.31.61-.48.33,0,0a2.62,2.62,0,0,1,1.37,1.1A1.33,1.33,0,0,1,523.29,523.14ZM522,520.46l-1.19.63c.93,1.35,1.54,1.65,2.09,1.36a.74.74,0,0,0,.29-1.11A2,2,0,0,0,522,520.46Z" transform="translate(-114.5 -12)"/><path class="cls-8" d="M516.33,520.94a.57.57,0,0,1-.53-1,.57.57,0,0,1,.53,1Zm1.28-.85-.38-.72,4.3-2.27.38.73Z" transform="translate(-114.5 -12)"/><path class="cls-8" d="M518.79,517.1a2.35,2.35,0,0,1-3.35-.88,2,2,0,0,1-.16-1.52l.68.12a1.36,1.36,0,0,0,.07,1,1.65,1.65,0,0,0,2.36.48,1.63,1.63,0,0,0,1-2.2,1.78,1.78,0,0,0-1-.78l.32-.57a2.38,2.38,0,0,1,1.28,1.1A2.29,2.29,0,0,1,518.79,517.1Z" transform="translate(-114.5 -12)"/><path class="cls-8" d="M517.71,512.56c-.94.49-1.83-.07-3-1.79-.55.29-1,.75-.61,1.46a2.73,2.73,0,0,0,1.13,1l-.35.54a3.59,3.59,0,0,1-1.45-1.39c-.55-1-.09-1.86,1-2.42l2.64-1.39.32.6-.49.33,0,0a2.62,2.62,0,0,1,1.37,1.1A1.32,1.32,0,0,1,517.71,512.56Zm-1.33-2.67-1.19.63c.93,1.34,1.54,1.65,2.09,1.36a.75.75,0,0,0,.29-1.12A2,2,0,0,0,516.38,509.89Z" transform="translate(-114.5 -12)"/></g></g><g class="cls-7"><g class="cls-7"><path class="cls-8" d="M473.21,566.43l-.23-.83,3.34-3.38,1.12-1.05v0c-.62.21-1.32.47-2,.65l-3.27.9-.21-.76,6.32-1.74.23.83-3.35,3.38-1.12,1.05v0c.63-.21,1.29-.46,1.95-.64l3.31-.91.21.76Z" transform="translate(-114.5 -12)"/><path class="cls-8" d="M471.71,560.37a.57.57,0,0,1-.3-1.1.57.57,0,0,1,.3,1.1Zm1.44-.55-.22-.8,4.69-1.29.21.8Z" transform="translate(-114.5 -12)"/><path class="cls-8" d="M474.94,557.15a2.35,2.35,0,0,1-3.08-1.58,2,2,0,0,1,.17-1.52l.64.26a1.37,1.37,0,0,0-.16,1,1.66,1.66,0,0,0,2.21,1c1.07-.3,1.63-1.08,1.39-2a1.78,1.78,0,0,0-.77-1l.44-.49a2.4,2.4,0,0,1,1,1.35A2.3,2.3,0,0,1,474.94,557.15Z" transform="translate(-114.5 -12)"/><path class="cls-8" d="M474.86,552.48c-1,.28-1.77-.46-2.54-2.4-.6.17-1.13.53-.91,1.3a2.6,2.6,0,0,0,.88,1.26l-.46.46a3.62,3.62,0,0,1-1.12-1.68c-.31-1.14.32-1.83,1.48-2.15l2.88-.79.18.65-.54.22v0a2.53,2.53,0,0,1,1.1,1.36A1.31,1.31,0,0,1,474.86,552.48Zm-.72-2.9-1.3.36c.62,1.52,1.15,1.94,1.75,1.78a.76.76,0,0,0,.53-1A2,2,0,0,0,474.14,549.58Z" transform="translate(-114.5 -12)"/><path class="cls-8" d="M470,548.29l-.18-.66.84-.3v0a1.65,1.65,0,0,1-1.33-1.06,1.1,1.1,0,0,1,0-.53l.73,0a1.28,1.28,0,0,0,0,.47c.11.4.52.79,1.4.89l3-.83.22.8Z" transform="translate(-114.5 -12)"/><path class="cls-8" d="M472.67,544.51c-1,.28-1.78-.46-2.54-2.4-.61.17-1.13.53-.92,1.29a2.63,2.63,0,0,0,.89,1.26l-.46.46a3.59,3.59,0,0,1-1.12-1.67c-.31-1.14.31-1.83,1.48-2.16l2.87-.79.18.66-.54.22v0a2.64,2.64,0,0,1,1.1,1.37A1.33,1.33,0,0,1,472.67,544.51Zm-.72-2.9-1.3.36c.62,1.52,1.15,1.94,1.75,1.78a.75.75,0,0,0,.52-1A2,2,0,0,0,472,541.61Z" transform="translate(-114.5 -12)"/><path class="cls-8" d="M473.46,539.13a1.36,1.36,0,0,1-1.25-.4l0,0a.92.92,0,0,1-.65.63,1.2,1.2,0,0,1-1-.28h0a1.67,1.67,0,0,1-1.09.95,1.71,1.71,0,0,1-2.15-1.29,2,2,0,0,1-.07-.7l-.45-1.63.61-.17.27,1a1.44,1.44,0,0,1,.86-.65,1.66,1.66,0,0,1,2.09,1.27,1.68,1.68,0,0,1,0,.74.7.7,0,0,0,.63.15c.3-.08.46-.33.28-1l-.25-.91c-.3-1.09-.11-1.73.67-2s1.88.48,2.27,1.93C474.5,538,474.27,538.91,473.46,539.13Zm-4.84-1.82a1,1,0,1,0,.55,2,1,1,0,1,0-.55-2Zm3.62-1.64c-.43.12-.49.49-.32,1.1l.22.81a2.44,2.44,0,0,1,.1.63,1,1,0,0,0,.92.26c.5-.14.68-.73.45-1.59S472.73,535.53,472.24,535.67Z" transform="translate(-114.5 -12)"/><path class="cls-8" d="M469.43,534.7l-3,.82-.22-.8,2.87-.79c.87-.24,1.17-.6,1-1.22s-.46-.75-1.14-1l-3.32.92-.22-.8,4.69-1.29.18.66-.72.27v0a2.1,2.1,0,0,1,1.28,1.31C471.14,533.75,470.62,534.37,469.43,534.7Z" transform="translate(-114.5 -12)"/><path class="cls-8" d="M468.54,529.54c-1,.28-1.77-.46-2.53-2.39-.61.17-1.13.53-.92,1.29a2.68,2.68,0,0,0,.89,1.26l-.46.46a3.59,3.59,0,0,1-1.12-1.67c-.32-1.15.31-1.84,1.48-2.16l2.87-.79.18.65-.54.23v0a2.62,2.62,0,0,1,1.1,1.36A1.32,1.32,0,0,1,468.54,529.54Zm-.71-2.89-1.3.35c.62,1.52,1.15,2,1.75,1.78a.74.74,0,0,0,.52-1A2,2,0,0,0,467.83,526.65Z" transform="translate(-114.5 -12)"/></g></g><g class="cls-7"><g class="cls-7"><path class="cls-8" d="M414.06,571.24l-.1-1.87c-.07-1.47.37-2.48,1.81-2.56s2.07.88,2.14,2.32l.06,1.07,2.6-.13,0,.83Zm3.18-2c-.06-1.15-.5-1.67-1.43-1.63s-1.22.65-1.16,1.8l0,.93,2.6-.13Z" transform="translate(-114.5 -12)"/><path class="cls-8" d="M419.1,566.12c-1.06.06-1.63-.83-2-2.88-.63,0-1.22.27-1.18,1.06a2.66,2.66,0,0,0,.6,1.42l-.55.35a3.59,3.59,0,0,1-.73-1.87c-.06-1.19.7-1.73,1.91-1.79l3-.16,0,.68-.58.1v0a2.58,2.58,0,0,1,.79,1.57A1.32,1.32,0,0,1,419.1,566.12Zm-.08-3-1.35.07c.28,1.61.71,2.14,1.33,2.11a.74.74,0,0,0,.73-.89A2,2,0,0,0,419,563.14Z" transform="translate(-114.5 -12)"/><path class="cls-8" d="M415.23,561l0-.67.69-.11v0a2.3,2.3,0,0,1-.9-1.58c-.06-1,.58-1.52,1.82-1.58l3.07-.16,0,.82-3,.15c-.91.05-1.28.34-1.25,1,0,.49.3.82.82,1.28l3.51-.18,0,.82Z" transform="translate(-114.5 -12)"/><path class="cls-8" d="M418.55,555.62c-1.05.06-1.63-.82-2-2.88-.63,0-1.22.27-1.17,1.06a2.58,2.58,0,0,0,.59,1.42l-.55.36a3.66,3.66,0,0,1-.73-1.88c-.06-1.18.7-1.72,1.91-1.79l3-.15,0,.68-.58.1v0a2.59,2.59,0,0,1,.78,1.57A1.32,1.32,0,0,1,418.55,555.62Zm-.08-3-1.34.07c.28,1.62.7,2.15,1.32,2.11a.75.75,0,0,0,.74-.89A2,2,0,0,0,418.47,552.64Z" transform="translate(-114.5 -12)"/><path class="cls-8" d="M414.68,550.48l0-.68.7-.11v0a2.12,2.12,0,0,1-.9-1.47,1.28,1.28,0,0,1,.85-1.39,2.29,2.29,0,0,1-1-1.55c-.05-1,.59-1.51,1.82-1.57l3.08-.16,0,.82-3,.15c-.9,0-1.27.35-1.24,1a1.75,1.75,0,0,0,.81,1.18l3.51-.19,0,.83-3,.15c-.91,0-1.28.35-1.25,1a1.83,1.83,0,0,0,.81,1.18l3.51-.18.05.82Z" transform="translate(-114.5 -12)"/><path class="cls-8" d="M412.91,541l-1.74-1.33.52-.61,1.61,1.49Zm4.95,1.28c-1.06.06-1.63-.83-2-2.88-.63,0-1.22.27-1.18,1.06a2.62,2.62,0,0,0,.6,1.42l-.55.35a3.59,3.59,0,0,1-.73-1.87c-.06-1.18.7-1.73,1.91-1.79l3-.15,0,.67-.58.1v0a2.63,2.63,0,0,1,.79,1.57A1.32,1.32,0,0,1,417.86,542.31Zm-.08-3-1.35.07c.28,1.62.71,2.14,1.33,2.11a.74.74,0,0,0,.73-.89A2,2,0,0,0,417.78,539.33Z" transform="translate(-114.5 -12)"/></g></g><g class="cls-7"><g class="cls-7"><path class="cls-8" d="M356.8,559.43l.31-1.84c.24-1.45.89-2.35,2.31-2.12s1.84,1.31,1.6,2.73l-.18,1.06,2.57.43-.14.82Zm3.54-1.24c.18-1.13-.14-1.74-1.06-1.9s-1.33.37-1.52,1.51l-.15.92,2.57.43Z" transform="translate(-114.5 -12)"/><path class="cls-8" d="M361.7,555.2a2.34,2.34,0,0,1-2.16-2.58c.2-1.22,1.19-1.76,2.56-1.54a3,3,0,0,1,.46.12l-.54,3.23a1.61,1.61,0,0,0,1.94-1.32,2.11,2.11,0,0,0-.18-1.25l.58-.21a2.91,2.91,0,0,1,.23,1.67A2.32,2.32,0,0,1,361.7,555.2Zm.17-3.42c-1-.16-1.56.19-1.68.94a1.49,1.49,0,0,0,1.25,1.62Z" transform="translate(-114.5 -12)"/><path class="cls-8" d="M360.17,549.55l.11-.67.89.08v0a1.68,1.68,0,0,1-.76-1.53,1,1,0,0,1,.18-.49l.68.27a1.49,1.49,0,0,0-.15.45c-.07.4.14.93.9,1.39l3.08.51-.14.82Z" transform="translate(-114.5 -12)"/><path class="cls-8" d="M359.69,544.6l-1.41-1.67.64-.48,1.25,1.8Zm4.08,2.1-3-.51.13-.81,2.94.49c.89.14,1.31-.06,1.42-.7a1.64,1.64,0,0,0-.59-1.41l-3.4-.57.13-.81,4.79.8-.11.67-.76-.06v0a2,2,0,0,1,.6,1.72C365.72,546.55,365,546.9,363.77,546.7Z" transform="translate(-114.5 -12)"/></g></g><g class="cls-7"><g class="cls-7"><path class="cls-8" d="M297,556.33l.33-.82,3.69.34c.8.07,1.44.16,2.24.22l0,0c-.62-.51-1.15-.89-1.78-1.39l-2.9-2.29.32-.79,5.31,4.37-.36.9Z" transform="translate(-114.5 -12)"/><path class="cls-8" d="M302.84,552.81a2.34,2.34,0,0,1-1.55-3c.46-1.15,1.54-1.47,2.83-1a2,2,0,0,1,.42.21l-1.22,3a1.61,1.61,0,0,0,2.18-.86,2.14,2.14,0,0,0,.09-1.27l.61-.07a2.84,2.84,0,0,1-.13,1.68A2.33,2.33,0,0,1,302.84,552.81Zm.9-3.3c-.9-.36-1.56-.15-1.84.55a1.5,1.5,0,0,0,.88,1.85Z" transform="translate(-114.5 -12)"/><path class="cls-8" d="M302.56,547l.26-.63.67.2v0a2.3,2.3,0,0,1-.15-1.81c.38-1,1.16-1.14,2.31-.67l2.86,1.14-.3.76-2.76-1.1c-.84-.34-1.31-.23-1.54.37a1.84,1.84,0,0,0,.19,1.51l3.27,1.31-.31.76Z" transform="translate(-114.5 -12)"/><path class="cls-8" d="M306.73,543.13a2.34,2.34,0,0,1-1.56-3c.46-1.15,1.54-1.47,2.83-.95a2,2,0,0,1,.42.21l-1.21,3a1.61,1.61,0,0,0,2.17-.86,2.07,2.07,0,0,0,.09-1.27l.61-.07a2.84,2.84,0,0,1-.13,1.68A2.32,2.32,0,0,1,306.73,543.13Zm.89-3.3c-.9-.37-1.56-.16-1.84.55a1.5,1.5,0,0,0,.88,1.85Z" transform="translate(-114.5 -12)"/><path class="cls-8" d="M310.36,539.4l-2.53-3.77-.85,2.11-.62-.25,1.23-3.07.41.16,2.53,3.77,1-2.45.63.25-1.37,3.41Z" transform="translate(-114.5 -12)"/><path class="cls-8" d="M310.82,534.64,308,533.49l.3-.76,2.76,1.1c.84.34,1.3.23,1.54-.37s.08-.87-.28-1.51l-3.19-1.28.3-.76,4.51,1.8-.25.63-.73-.21v0a2.08,2.08,0,0,1,.22,1.82C312.76,534.92,312,535.1,310.82,534.64Z" transform="translate(-114.5 -12)"/><path class="cls-8" d="M312.14,529.62a2.34,2.34,0,0,1-1.56-3c.46-1.15,1.55-1.46,2.84-.95l.42.21-1.22,3a1.62,1.62,0,0,0,2.18-.87,2.19,2.19,0,0,0,.09-1.26l.6-.08a2.83,2.83,0,0,1-.12,1.68A2.33,2.33,0,0,1,312.14,529.62Zm.9-3.3c-.91-.36-1.56-.15-1.85.56a1.5,1.5,0,0,0,.88,1.85Z" transform="translate(-114.5 -12)"/><path class="cls-8" d="M315.46,525.22l-5.7-2.28.31-.77,5.75,2.31c.24.1.37,0,.42-.08s0-.08.05-.17l.62.13a1.48,1.48,0,0,1-.11.46C316.57,525.39,316.12,525.48,315.46,525.22Z" transform="translate(-114.5 -12)"/><path class="cls-8" d="M316,523c-1-.4-1.13-1.44-.57-3.45-.58-.23-1.21-.26-1.51.48a2.63,2.63,0,0,0-.05,1.54l-.65.09a3.62,3.62,0,0,1,.12-2c.44-1.1,1.36-1.27,2.49-.82l2.76,1.11-.25.63-.57-.16v0a2.57,2.57,0,0,1,.06,1.75A1.32,1.32,0,0,1,316,523Zm1.19-2.74-1.26-.5c-.42,1.58-.26,2.24.32,2.47a.75.75,0,0,0,1-.5A2,2,0,0,0,317.22,520.29Z" transform="translate(-114.5 -12)"/></g></g><g class="cls-7"><g class="cls-7"><path class="cls-8" d="M251,517.87l1.1-1.61c.75-1.1,1.64-1.61,2.6-1a1.45,1.45,0,0,1,.63,1.6l0,0a1.52,1.52,0,0,1,2.05-.22c1.06.73,1,1.92.18,3.13l-1.18,1.74Zm3.33.08c.62-.92.54-1.53,0-1.91s-1.16-.16-1.73.68l-.57.83,1.76,1.2Zm2.66,1.61c.63-.93.67-1.7-.06-2.2s-1.33-.14-2,.81l-.64.94,2,1.39Z" transform="translate(-114.5 -12)"/><path class="cls-8" d="M255.67,514l.39-.56.77.44v0a1.67,1.67,0,0,1,0-1.71,1.3,1.3,0,0,1,.37-.37l.51.53a1.59,1.59,0,0,0-.33.35,1.46,1.46,0,0,0,.23,1.64l2.58,1.76-.46.68Z" transform="translate(-114.5 -12)"/><path class="cls-8" d="M260.3,513.64c-.88-.6-.8-1.65.18-3.49-.52-.35-1.13-.52-1.58.14a2.69,2.69,0,0,0-.39,1.49l-.64,0a3.58,3.58,0,0,1,.55-1.94c.66-1,1.6-1,2.6-.26l2.46,1.67-.38.56-.52-.27,0,0a2.56,2.56,0,0,1-.32,1.72A1.32,1.32,0,0,1,260.3,513.64Zm1.74-2.43-1.12-.75c-.75,1.45-.73,2.13-.22,2.48a.74.74,0,0,0,1.12-.27A2,2,0,0,0,262,511.21Z" transform="translate(-114.5 -12)"/><path class="cls-8" d="M263.58,510.07l-.22-.64a2.23,2.23,0,0,0,1.29-.86c.36-.53.25-1-.09-1.22s-.92.07-1.39.4-1.29.87-2,.41A1.47,1.47,0,0,1,261,506a2.47,2.47,0,0,1,1.3-.94l.22.62a1.87,1.87,0,0,0-1,.67c-.35.51-.24.92.07,1.13s.82-.08,1.3-.41,1.29-.92,2.06-.4a1.54,1.54,0,0,1,.19,2.28A3,3,0,0,1,263.58,510.07Z" transform="translate(-114.5 -12)"/><path class="cls-8" d="M261.34,503a.53.53,0,0,1-.12-.77.53.53,0,1,1,.88.6A.54.54,0,0,1,261.34,503Zm1.35.74.46-.68,4,2.73-.47.68Z" transform="translate(-114.5 -12)"/><path class="cls-8" d="M267.28,503.89l-5.08-3.46.47-.68,5.12,3.49c.21.14.36.11.42,0a.69.69,0,0,0,.09-.16l.58.26a1.35,1.35,0,0,1-.2.44C268.33,504.3,267.86,504.28,267.28,503.89Z" transform="translate(-114.5 -12)"/></g></g><g class="cls-7"><g class="cls-7"><path class="cls-8" d="M206.46,481.39l.68-.65,6.12,3.25-.65.61-3.34-1.88c-.67-.37-1.32-.75-2-1.16l0,0c.37.69.71,1.36,1,2.05L210,487.1l-.62.58Zm1.9,3.56,2.2-2.08.46.49-2.2,2.07Z" transform="translate(-114.5 -12)"/><path class="cls-8" d="M210.55,479.87l.49-.46.53.46,0,0a2.33,2.33,0,0,1,.62-1.72c.75-.7,1.54-.53,2.39.37l2.11,2.24-.6.56-2-2.16c-.62-.66-1.09-.75-1.55-.31a1.85,1.85,0,0,0-.46,1.45l2.42,2.56-.6.57Z" transform="translate(-114.5 -12)"/><path class="cls-8" d="M218.23,480.59a1.38,1.38,0,0,1-.24-1.29l0,0a.9.9,0,0,1-.87-.28,1.2,1.2,0,0,1-.23-1l0,0a1.71,1.71,0,0,1-1.22-3,2.12,2.12,0,0,1,.58-.38l1.24-1.17.43.46-.72.69a1.37,1.37,0,0,1,1,.45,1.67,1.67,0,0,1-.14,2.45,1.79,1.79,0,0,1-.64.38.75.75,0,0,0,.17.63c.21.22.51.24,1-.21l.69-.64c.82-.78,1.48-.91,2-.32s.46,1.87-.63,2.9C219.72,481,218.8,481.19,218.23,480.59Zm-.66-5.13a1,1,0,1,0-1.5,1.42,1,1,0,1,0,1.5-1.42Zm3.15,2.43c-.31-.33-.66-.21-1.13.23l-.61.58a2.71,2.71,0,0,1-.51.38,1,1,0,0,0,.2.93c.36.38,1,.26,1.61-.35S221.07,478.26,220.72,477.89Z" transform="translate(-114.5 -12)"/><path class="cls-8" d="M219.5,474.78a2.27,2.27,0,1,1,3.27-3.09,2.27,2.27,0,1,1-3.27,3.09Zm2.66-2.51c-.77-.81-1.7-1-2.31-.4s-.5,1.51.27,2.32,1.68,1,2.29.39S222.92,473.08,222.16,472.27Z" transform="translate(-114.5 -12)"/><path class="cls-8" d="M224.67,471.89l-4.22-4.47.6-.56,4.26,4.51c.17.18.32.18.4.1a.44.44,0,0,0,.12-.14l.51.38a1.19,1.19,0,0,1-.29.38C225.6,472.51,225.15,472.4,224.67,471.89Z" transform="translate(-114.5 -12)"/><path class="cls-8" d="M226.11,470.14c-.73-.77-.43-1.78.92-3.37-.43-.45-1-.74-1.57-.2a2.67,2.67,0,0,0-.69,1.37l-.62-.19a3.52,3.52,0,0,1,.95-1.77c.86-.81,1.77-.58,2.6.3l2,2.17-.49.46-.45-.37,0,0a2.59,2.59,0,0,1-.69,1.61A1.31,1.31,0,0,1,226.11,470.14Zm2.22-2-.93-1c-1.05,1.26-1.17,1.92-.75,2.37a.75.75,0,0,0,1.16,0A2,2,0,0,0,228.33,468.15Z" transform="translate(-114.5 -12)"/></g></g><g class="cls-7"><g class="cls-7"><path class="cls-8" d="M168,441.28c-1.08-1.82-.67-3.56.75-4.42a2.43,2.43,0,0,1,2-.23l-.12.7a1.8,1.8,0,0,0-1.46.15c-1.06.64-1.25,1.94-.41,3.34s2.06,1.89,3.12,1.26a2,2,0,0,0,.93-1.42l.66.22a2.5,2.5,0,0,1-1.24,1.84C170.76,443.56,169.06,443.11,168,441.28Z" transform="translate(-114.5 -12)"/><path class="cls-8" d="M173.9,440.07c-.54-.91,0-1.83,1.63-3.09-.32-.53-.81-.94-1.49-.53a2.65,2.65,0,0,0-1,1.19l-.56-.32a3.55,3.55,0,0,1,1.31-1.53c1-.61,1.85-.19,2.47.85l1.53,2.56-.58.35-.36-.47,0,0a2.61,2.61,0,0,1-1,1.43A1.33,1.33,0,0,1,173.9,440.07Zm2.6-1.47-.69-1.15c-1.3,1-1.57,1.63-1.25,2.16a.75.75,0,0,0,1.13.23A2,2,0,0,0,176.5,438.6Z" transform="translate(-114.5 -12)"/><path class="cls-8" d="M176.64,434.24l.58-.35.42.57h0a2.16,2.16,0,0,1,.88-1.49,1.27,1.27,0,0,1,1.62.11,2.34,2.34,0,0,1,.9-1.62c.86-.51,1.61-.19,2.25.87l1.58,2.64-.71.42-1.52-2.54c-.47-.78-.91-1-1.44-.65a1.76,1.76,0,0,0-.67,1.27l1.81,3-.7.43-1.53-2.55c-.46-.78-.91-1-1.44-.65A1.83,1.83,0,0,0,178,435l1.81,3-.71.42Z" transform="translate(-114.5 -12)"/><path class="cls-8" d="M184.69,432.26a2.35,2.35,0,0,1,.56-3.32c1.06-.63,2.12-.23,2.84,1a3.79,3.79,0,0,1,.2.42l-2.8,1.68a1.6,1.6,0,0,0,2.25.63,2.14,2.14,0,0,0,.84-.95l.53.31a2.81,2.81,0,0,1-1.12,1.25A2.31,2.31,0,0,1,184.69,432.26Zm2.71-2.09c-.5-.83-1.15-1.06-1.8-.67a1.47,1.47,0,0,0-.42,2Z" transform="translate(-114.5 -12)"/><path class="cls-8" d="M188,427.43l.59-.34.51.72,0,0a1.68,1.68,0,0,1,.67-1.57,1.22,1.22,0,0,1,.5-.18l.24.7a1.38,1.38,0,0,0-.45.17c-.35.21-.62.72-.48,1.59l1.61,2.68-.71.42Z" transform="translate(-114.5 -12)"/><path class="cls-8" d="M192.51,428.33l-1.59-2.64.71-.43,1.53,2.55c.46.78.9,1,1.45.64s.59-.64.69-1.37l-1.77-3,.71-.42,2.49,4.17-.58.35-.45-.62,0,0a2.06,2.06,0,0,1-.93,1.57C193.88,429.72,193.14,429.39,192.51,428.33Zm-1-4.46.36-2.16.78.17L192,424Z" transform="translate(-114.5 -12)"/><path class="cls-8" d="M195.65,422.86l.58-.35.42.56h0a2.34,2.34,0,0,1,1-1.54c.88-.53,1.61-.2,2.25.87l1.58,2.64-.7.42-1.53-2.55c-.47-.78-.9-1-1.45-.64a1.86,1.86,0,0,0-.76,1.32l1.81,3-.71.43Z" transform="translate(-114.5 -12)"/></g></g><g class="cls-7"><g class="cls-7"><path class="cls-8" d="M130.69,391.7c-.67-2,.11-3.62,1.68-4.15a2.49,2.49,0,0,1,2,.19l-.26.66a1.76,1.76,0,0,0-1.46-.16c-1.18.39-1.64,1.62-1.12,3.17s1.6,2.29,2.78,1.9a2,2,0,0,0,1.21-1.19l.6.36a2.53,2.53,0,0,1-1.61,1.53C132.93,394.53,131.37,393.72,130.69,391.7Z" transform="translate(-114.5 -12)"/><path class="cls-8" d="M136.32,390.72a2.27,2.27,0,1,1,3,1.69A2.33,2.33,0,0,1,136.32,390.72Zm3.47-1.16c-.35-1.06-1.13-1.6-1.92-1.33s-1.09,1.16-.74,2.22,1.13,1.58,1.92,1.31S140.14,390.61,139.79,389.56Z" transform="translate(-114.5 -12)"/><path class="cls-8" d="M141.87,390.83l.21-.64a2.23,2.23,0,0,0,1.55.09c.6-.2.79-.63.66-1s-.77-.5-1.34-.52c-.73,0-1.56-.09-1.82-.87a1.46,1.46,0,0,1,1.15-1.84,2.42,2.42,0,0,1,1.6,0l-.2.62a1.87,1.87,0,0,0-1.19-.06c-.58.2-.75.6-.63.95s.71.43,1.29.46c.75,0,1.58,0,1.88.92s-.14,1.57-1.23,1.93A2.89,2.89,0,0,1,141.87,390.83Z" transform="translate(-114.5 -12)"/><path class="cls-8" d="M146,388.45l-.85-2.55-.69.23-.19-.59.7-.29-.34-1.32.65-.22.44,1.3,1.24-.42.22.63-1.25.42.85,2.56c.19.57.48.83,1,.65a1.43,1.43,0,0,0,.48-.3l.35.54a2.88,2.88,0,0,1-.8.46C146.85,389.88,146.31,389.37,146,388.45Z" transform="translate(-114.5 -12)"/><path class="cls-8" d="M148.66,387.81c-.34-1,.36-1.79,2.26-2.66-.2-.6-.59-1.1-1.35-.85a2.64,2.64,0,0,0-1.2,1l-.49-.44a3.5,3.5,0,0,1,1.61-1.2c1.13-.38,1.85.21,2.24,1.35l.94,2.83L152,388l-.25-.53h0a2.59,2.59,0,0,1-1.3,1.17A1.32,1.32,0,0,1,148.66,387.81Zm2.85-.87-.42-1.28c-1.49.7-1.88,1.25-1.68,1.84a.74.74,0,0,0,1.05.47A2,2,0,0,0,151.51,386.94Z" transform="translate(-114.5 -12)"/><path class="cls-8" d="M154.93,384.49a2.3,2.3,0,0,1,1.18-3.09,2,2,0,0,1,1.47.1l-.3-.78-.59-1.77.78-.26,2.26,6.75-.65.22-.25-.53h0a2.18,2.18,0,0,1-1.18,1.13C156.48,386.65,155.44,386,154.93,384.49Zm3.63,0-.81-2.41a1.75,1.75,0,0,0-1.29-.11,1.63,1.63,0,0,0-.73,2.2c.37,1.11,1.05,1.61,1.85,1.34A1.68,1.68,0,0,0,158.56,384.53Z" transform="translate(-114.5 -12)"/><path class="cls-8" d="M160.18,382.74a2.33,2.33,0,0,1,1.26-3.12c1.17-.39,2.12.23,2.56,1.55a3.63,3.63,0,0,1,.11.45l-3.1,1a1.62,1.62,0,0,0,2.07,1.1,2.17,2.17,0,0,0,1-.76l.45.42a2.91,2.91,0,0,1-1.36,1A2.32,2.32,0,0,1,160.18,382.74Zm3.09-1.46c-.31-.92-.89-1.28-1.61-1a1.48,1.48,0,0,0-.85,1.86Z" transform="translate(-114.5 -12)"/><path class="cls-8" d="M165.88,376.47l1-.32,2.31,2.92.87,1.15h0c0-.49,0-1,0-1.44l.06-3.72,1-.32,2.08,6.22-.74.25-1.14-3.43c-.19-.54-.38-1.31-.52-1.87h0l0,1.59-.09,3.61-.53.17-2.25-2.82-1-1.26h0c.23.54.54,1.27.72,1.81l1.15,3.43-.72.24Z" transform="translate(-114.5 -12)"/><path class="cls-8" d="M174.09,379.3c-.33-1,.37-1.79,2.26-2.66-.2-.59-.59-1.1-1.34-.85a2.67,2.67,0,0,0-1.21,1l-.48-.44a3.52,3.52,0,0,1,1.6-1.2c1.13-.38,1.85.21,2.24,1.36l.94,2.82-.64.22-.25-.53h0a2.55,2.55,0,0,1-1.3,1.17A1.32,1.32,0,0,1,174.09,379.3Zm2.86-.87-.43-1.28c-1.48.7-1.88,1.25-1.68,1.84a.74.74,0,0,0,1,.47A2,2,0,0,0,177,378.43Z" transform="translate(-114.5 -12)"/><path class="cls-8" d="M178,374.2l.64-.22.35.82h0a1.66,1.66,0,0,1,1-1.39,1.09,1.09,0,0,1,.52-.07l.08.73a1.37,1.37,0,0,0-.47.08c-.39.13-.76.56-.81,1.45l1,3-.78.27Z" transform="translate(-114.5 -12)"/><path class="cls-8" d="M180.83,373.31l.64-.27,1.72-.57.22.63-2.39.8Zm.36-1c-.31-.94-.08-1.68.84-2a2.18,2.18,0,0,1,.82-.09l0,.65a1.5,1.5,0,0,0-.57.05c-.43.15-.54.52-.34,1.12l1.78,5.33-.78.26Z" transform="translate(-114.5 -12)"/><path class="cls-8" d="M183.45,370.77a.54.54,0,0,1,.37-.69.53.53,0,1,1,.34,1A.54.54,0,0,1,183.45,370.77Zm.63,1.4.78-.26,1.54,4.61-.78.26Z" transform="translate(-114.5 -12)"/><path class="cls-8" d="M187.64,375.07l-1.95-5.82.78-.27,2,5.89c.08.24.22.3.33.26l.17-.08.3.56a1.33,1.33,0,0,1-.42.23C188.23,376,187.87,375.74,187.64,375.07Z" transform="translate(-114.5 -12)"/></g></g><g class="cls-7"><g class="cls-7"><path class="cls-8" d="M133.76,330l-.4-3.83.83-.09.41,3.85c.16,1.57.88,2,1.73,1.9s1.49-.66,1.33-2.23l-.41-3.85.79-.08.41,3.83c.22,2.09-.71,2.92-2,3.06S134,332,133.76,330Z" transform="translate(-114.5 -12)"/><path class="cls-8" d="M140.05,332.94a1.38,1.38,0,0,1,.59-1.17v0a.92.92,0,0,1-.52-.75,1.17,1.17,0,0,1,.44-1v0a1.68,1.68,0,0,1-.76-1.23,1.72,1.72,0,0,1,1.63-1.91,2.14,2.14,0,0,1,.69,0l1.69-.18.06.63-1,.11a1.38,1.38,0,0,1,.5.95,1.65,1.65,0,0,1-1.59,1.86,1.72,1.72,0,0,1-.74-.08.72.72,0,0,0-.24.6c0,.31.25.5.9.44l.94-.1c1.12-.12,1.73.17,1.81,1s-.77,1.77-2.26,1.93C141,334.15,140.14,333.77,140.05,332.94Zm2.58-4.48a1,1,0,0,0-1.15-1,1,1,0,0,0-.9,1.24,1.06,1.06,0,0,0,1.14,1A1.07,1.07,0,0,0,142.63,328.46Zm1,3.84c0-.45-.4-.57-1-.5l-.84.09a2.68,2.68,0,0,1-.63,0,1,1,0,0,0-.41.87c.06.52.61.79,1.49.69S143.72,332.8,143.66,332.3Z" transform="translate(-114.5 -12)"/><path class="cls-8" d="M144.74,330.23c-.12-1.05.74-1.67,2.77-2.12-.07-.62-.34-1.19-1.13-1.11a2.72,2.72,0,0,0-1.38.67l-.38-.53a3.5,3.5,0,0,1,1.83-.83c1.18-.13,1.76.61,1.89,1.81l.31,3-.67.07-.13-.57h0a2.55,2.55,0,0,1-1.52.86A1.31,1.31,0,0,1,144.74,330.23Zm3-.24-.14-1.34c-1.6.37-2.11.82-2,1.44a.75.75,0,0,0,.93.68A2,2,0,0,0,147.71,330Z" transform="translate(-114.5 -12)"/><path class="cls-8" d="M149.67,326.09l.67-.07.14.69h0a2.32,2.32,0,0,1,1.53-1c1-.1,1.55.5,1.68,1.74l.33,3.06-.82.08-.31-2.95c-.1-.9-.41-1.26-1-1.19s-.81.34-1.25.88l.38,3.5-.82.09Z" transform="translate(-114.5 -12)"/><path class="cls-8" d="M155,328a2.3,2.3,0,0,1,1.82-2.77,2,2,0,0,1,1.41.42l-.12-.83-.2-1.86.82-.08.75,7.08-.67.07-.13-.57h0a2.18,2.18,0,0,1-1.39.84C156.07,330.41,155.19,329.58,155,328Zm3.53.82-.27-2.54a1.67,1.67,0,0,0-1.23-.37c-.77.08-1.3.89-1.19,2s.68,1.8,1.52,1.71A1.68,1.68,0,0,0,158.55,328.79Z" transform="translate(-114.5 -12)"/><path class="cls-8" d="M160.71,328.53c-.12-1,.74-1.68,2.77-2.12-.07-.62-.34-1.2-1.13-1.11A2.6,2.6,0,0,0,161,326l-.38-.53a3.5,3.5,0,0,1,1.83-.83c1.18-.13,1.76.6,1.89,1.81l.31,3-.67.07-.13-.57h0a2.52,2.52,0,0,1-1.52.87A1.31,1.31,0,0,1,160.71,328.53Zm3-.24-.14-1.34c-1.6.36-2.11.82-2,1.44a.75.75,0,0,0,.93.68A2,2,0,0,0,163.68,328.29Z" transform="translate(-114.5 -12)"/></g></g><g class="cls-7"><g class="cls-7"><path class="cls-8" d="M140.69,268.39l.83.09L140.8,275l-.83-.09Z" transform="translate(-114.5 -12)"/><path class="cls-8" d="M143,270.36l.68.07v.71h0a2.33,2.33,0,0,1,1.71-.64c1,.12,1.4.83,1.26,2.06l-.34,3.06-.81-.09.32-3c.1-.9-.13-1.31-.77-1.38a1.8,1.8,0,0,0-1.4.59l-.39,3.5-.81-.09Z" transform="translate(-114.5 -12)"/><path class="cls-8" d="M147.87,273.34a2.28,2.28,0,0,1,2.37-2.3,2,2,0,0,1,1.29.71l.06-.84.2-1.86.82.09-.78,7.08-.68-.07v-.58h0a2.14,2.14,0,0,1-1.54.52C148.37,276,147.69,275,147.87,273.34Zm3.27,1.56.28-2.53a1.68,1.68,0,0,0-1.12-.63c-.77-.09-1.47.59-1.59,1.69s.28,1.9,1.12,2A1.65,1.65,0,0,0,151.14,274.9Z" transform="translate(-114.5 -12)"/><path class="cls-8" d="M154,271.57l.81.09-.53,4.83-.82-.09Zm0-1.53a.53.53,0,0,1,.62-.47.52.52,0,0,1,.5.59A.56.56,0,0,1,154,270Z" transform="translate(-114.5 -12)"/><path class="cls-8" d="M155.74,275.39c.12-1.06,1.09-1.48,3.17-1.48.07-.62-.07-1.24-.86-1.33a2.72,2.72,0,0,0-1.5.36l-.26-.59a3.49,3.49,0,0,1,2-.42c1.18.13,1.59,1,1.46,2.17l-.33,3-.68-.08v-.58h0a2.61,2.61,0,0,1-1.67.52A1.33,1.33,0,0,1,155.74,275.39Zm3,.4.15-1.34c-1.64,0-2.23.35-2.3,1s.29.81.76.86A2,2,0,0,0,158.7,275.79Z" transform="translate(-114.5 -12)"/></g></g><g class="cls-7"><g class="cls-7"><path class="cls-8" d="M151.52,218.08l.69-.21a1.24,1.24,0,0,0,.84,1.06c.66.23,1.12,0,1.44-1l1.46-4.31.79.27-1.48,4.38a1.78,1.78,0,0,1-2.37,1.36A1.91,1.91,0,0,1,151.52,218.08Z" transform="translate(-114.5 -12)"/><path class="cls-8" d="M156.36,219.37c.34-1,1.38-1.21,3.41-.76.2-.59.2-1.22-.56-1.48a2.68,2.68,0,0,0-1.54,0l-.12-.64a3.6,3.6,0,0,1,2,0c1.13.38,1.35,1.29,1,2.44l-1,2.82-.64-.22L159,221h0a2.56,2.56,0,0,1-1.74.15A1.33,1.33,0,0,1,156.36,219.37Zm2.8,1,.44-1.27c-1.61-.34-2.26-.14-2.46.45a.74.74,0,0,0,.56,1A2,2,0,0,0,159.16,220.4Z" transform="translate(-114.5 -12)"/><path class="cls-8" d="M161.91,217.46l.8.27v2.91c0,.49,0,1,0,1.5h0l.88-1.21,1.76-2.32.76.26-3.18,4.05-.91-.31Z" transform="translate(-114.5 -12)"/><path class="cls-8" d="M165.37,222.43c.34-1,1.37-1.21,3.41-.76.19-.59.19-1.23-.56-1.48a2.68,2.68,0,0,0-1.54,0l-.12-.63a3.51,3.51,0,0,1,2,0c1.12.38,1.34,1.29,1,2.43l-1,2.83-.65-.22.12-.58h0a2.59,2.59,0,0,1-1.75.14A1.31,1.31,0,0,1,165.37,222.43Zm2.8,1,.43-1.28c-1.6-.34-2.25-.14-2.45.45a.74.74,0,0,0,.56,1A2,2,0,0,0,168.17,223.46Z" transform="translate(-114.5 -12)"/></g></g><g class="cls-7"><g class="cls-7"><path class="cls-8" d="M166,160.7l.72-.24a2.59,2.59,0,0,0,1.13,1.64c.74.44,1.4.34,1.72-.21s.06-1-.33-1.55l-.6-.84a1.76,1.76,0,0,1,2.41-2.56,2.69,2.69,0,0,1,1.23,1.7l-.65.23a2.09,2.09,0,0,0-1-1.3c-.63-.38-1.24-.32-1.54.19s0,1,.37,1.49l.59.83a1.83,1.83,0,0,1,.25,2.2,2,2,0,0,1-2.88.44A3.16,3.16,0,0,1,166,160.7Z" transform="translate(-114.5 -12)"/><path class="cls-8" d="M173,160.24l.58.35-.4.79,0,0a1.66,1.66,0,0,1,1.7-.15,1.05,1.05,0,0,1,.39.36l-.5.53a1.42,1.42,0,0,0-.37-.31c-.35-.21-.92-.21-1.63.32l-1.61,2.67-.7-.42Z" transform="translate(-114.5 -12)"/><path class="cls-8" d="M176,162l.7.43-2.51,4.16-.7-.43Zm.66-1.38a.52.52,0,0,1,.76-.16.51.51,0,0,1,.21.74.57.57,0,0,1-1-.58Z" transform="translate(-114.5 -12)"/><path class="cls-8" d="M180.72,162.92l.72.44-3,5,2.45,1.48-.37.6-3.16-1.91Z" transform="translate(-114.5 -12)"/><path class="cls-8" d="M181.82,169.78c.54-.91,1.6-.89,3.49,0,.32-.54.45-1.16-.23-1.57a2.67,2.67,0,0,0-1.5-.3v-.65a3.56,3.56,0,0,1,2,.44c1,.62,1,1.55.41,2.59l-1.54,2.55-.58-.36.24-.53h0a2.6,2.6,0,0,1-1.74-.23A1.31,1.31,0,0,1,181.82,169.78Zm2.51,1.61.7-1.16c-1.49-.67-2.17-.62-2.49-.09a.75.75,0,0,0,.32,1.11A2,2,0,0,0,184.33,171.39Z" transform="translate(-114.5 -12)"/><path class="cls-8" d="M188.25,169.46l.58.35-.3.64h0a2.34,2.34,0,0,1,1.82.14c.88.53.93,1.34.29,2.4l-1.6,2.63-.7-.42,1.54-2.55c.47-.77.43-1.24-.12-1.58a1.9,1.9,0,0,0-1.52-.05l-1.82,3-.7-.43Z" transform="translate(-114.5 -12)"/><path class="cls-8" d="M194.1,170.36l.69.42-2.49,4.12,0,0,3.1-1.12.78.47-2.4.83.07,3.44-.77-.47v-2.73l-1.33.44-.66,1.09-.69-.42Z" transform="translate(-114.5 -12)"/><path class="cls-8" d="M195,177.72c.55-.9,1.6-.88,3.49,0,.32-.54.46-1.16-.22-1.57a2.7,2.7,0,0,0-1.51-.31l0-.64a3.59,3.59,0,0,1,2,.44c1,.61,1,1.55.41,2.58l-1.54,2.55-.58-.35.24-.53h0a2.61,2.61,0,0,1-1.74-.24A1.33,1.33,0,0,1,195,177.72Zm2.52,1.61.69-1.15c-1.49-.68-2.17-.62-2.49-.09a.75.75,0,0,0,.33,1.11A2,2,0,0,0,197.48,179.33Z" transform="translate(-114.5 -12)"/></g></g><g class="cls-7"><g class="cls-7"><path class="cls-8" d="M203.1,114.65l.75-.07a2.59,2.59,0,0,0,.75,1.83c.63.6,1.29.64,1.73.18s.27-1,0-1.59l-.39-1a1.76,1.76,0,0,1,2.9-2,2.73,2.73,0,0,1,.84,1.92l-.69.08a2.1,2.1,0,0,0-.66-1.47c-.53-.51-1.14-.57-1.54-.15s-.19,1,0,1.54l.4.93a1.83,1.83,0,0,1-.23,2.21,2,2,0,0,1-2.9-.19A3.13,3.13,0,0,1,203.1,114.65Z" transform="translate(-114.5 -12)"/><path class="cls-8" d="M207.85,117.89l2.12-2.23.59.56-2.05,2.16c-.62.65-.69,1.12-.22,1.57a1.62,1.62,0,0,0,1.5.3l2.38-2.5.6.57-3.35,3.52-.5-.47.48-.6,0,0a2,2,0,0,1-1.77-.46C206.87,119.58,207,118.79,207.85,117.89Z" transform="translate(-114.5 -12)"/><path class="cls-8" d="M214,119.45l.49.47-.44.56,0,0a2.16,2.16,0,0,1,1.67.44,1.29,1.29,0,0,1,.33,1.6,2.28,2.28,0,0,1,1.8.43c.72.69.61,1.5-.24,2.4l-2.12,2.23-.6-.57,2-2.15c.62-.66.68-1.14.24-1.56a1.8,1.8,0,0,0-1.4-.3l-2.42,2.55-.6-.57,2-2.15c.62-.66.68-1.14.23-1.56a1.79,1.79,0,0,0-1.39-.3l-2.43,2.55-.59-.57Z" transform="translate(-114.5 -12)"/><path class="cls-8" d="M217.26,127.56c.73-.76,1.76-.52,3.42.75.43-.46.69-1,.11-1.58a2.55,2.55,0,0,0-1.4-.62l.15-.63a3.46,3.46,0,0,1,1.82.85c.86.82.68,1.74-.15,2.61l-2.06,2.16-.49-.47.35-.46,0,0a2.63,2.63,0,0,1-1.65-.6A1.33,1.33,0,0,1,217.26,127.56Zm2.11,2.12.93-1c-1.31-1-2-1.07-2.41-.62a.74.74,0,0,0,.08,1.15A2,2,0,0,0,219.37,129.68Z" transform="translate(-114.5 -12)"/><path class="cls-8" d="M221.3,131.07l1.86-1.94-.53-.5.43-.45.58.49,1-.92.5.47-.94,1,1,.91-.47.48-.95-.91-1.86,2c-.41.43-.51.81-.1,1.2a1.72,1.72,0,0,0,.49.29l-.32.55a2.87,2.87,0,0,1-.77-.49C220.44,132.49,220.64,131.77,221.3,131.07Z" transform="translate(-114.5 -12)"/><path class="cls-8" d="M226,130.87l.49.47-.56.69,0,0a1.69,1.69,0,0,1,1.7.22,1.16,1.16,0,0,1,.3.43l-.61.42a1.24,1.24,0,0,0-.28-.38c-.3-.29-.86-.41-1.66,0L223.21,135l-.6-.57Z" transform="translate(-114.5 -12)"/><path class="cls-8" d="M225.6,135.5c.73-.77,1.76-.52,3.42.74.42-.45.69-1,.11-1.58a2.63,2.63,0,0,0-1.4-.62l.15-.63a3.54,3.54,0,0,1,1.82.85c.86.82.68,1.74-.15,2.62L227.49,139l-.49-.47.35-.47,0,0a2.57,2.57,0,0,1-1.65-.6A1.32,1.32,0,0,1,225.6,135.5Zm2.11,2.11.93-1c-1.31-1-2-1.07-2.41-.62a.74.74,0,0,0,.08,1.15A2,2,0,0,0,227.71,137.61Z" transform="translate(-114.5 -12)"/></g></g><g class="cls-7"><g class="cls-7"><path class="cls-8" d="M252.46,73.11l.49.73-2.34,2.86c-.51.63-.94,1.11-1.44,1.74l0,0c.77-.23,1.38-.44,2.15-.69l3.52-1.11.48.71-6.6,1.94-.55-.8Z" transform="translate(-114.5 -12)"/><path class="cls-8" d="M254.39,79l.46.68-4,2.72-.46-.68Zm1.18-1a.53.53,0,0,1,.76.17.53.53,0,0,1-.12.77.57.57,0,0,1-.64-.94Z" transform="translate(-114.5 -12)"/><path class="cls-8" d="M253.54,82.11a2.35,2.35,0,0,1,3.34.38c.7,1,.35,2.11-.8,2.88a2,2,0,0,1-.41.23l-1.83-2.71a1.62,1.62,0,0,0-.5,2.29,2.08,2.08,0,0,0,1,.78l-.28.55a2.85,2.85,0,0,1-1.31-1.05A2.32,2.32,0,0,1,253.54,82.11Zm2.23,2.59c.81-.54,1-1.2.58-1.83a1.5,1.5,0,0,0-2-.31Z" transform="translate(-114.5 -12)"/><path class="cls-8" d="M255.78,87.07l2.23-1.5-.41-.6.52-.35.46.61,1.19-.68.38.57-1.13.76.74,1.09-.55.37-.74-1.09-2.24,1.51c-.49.34-.67.69-.36,1.15a2,2,0,0,0,.42.39l-.42.48a3.13,3.13,0,0,1-.66-.65C254.63,88.27,255,87.61,255.78,87.07Z" transform="translate(-114.5 -12)"/><path class="cls-8" d="M260.37,87.88l.38.56-.54.45,0,0a2.34,2.34,0,0,1,1.59.89c.57.85.28,1.6-.75,2.3l-2.55,1.72-.46-.68,2.47-1.66c.75-.51.91-1,.55-1.49s-.68-.55-1.36-.68l-2.91,2-.46-.68Z" transform="translate(-114.5 -12)"/><path class="cls-8" d="M260.28,94.17c.88-.59,1.83-.13,3.18,1.46.51-.35.9-.86.45-1.51a2.62,2.62,0,0,0-1.24-.91l.29-.59a3.62,3.62,0,0,1,1.59,1.23c.66,1,.29,1.84-.71,2.52L261.37,98l-.38-.57.44-.38v0a2.56,2.56,0,0,1-1.48-.94A1.33,1.33,0,0,1,260.28,94.17Zm1.61,2.52,1.12-.75c-1.07-1.24-1.71-1.48-2.23-1.13a.75.75,0,0,0-.17,1.14A2,2,0,0,0,261.89,96.69Z" transform="translate(-114.5 -12)"/><path class="cls-8" d="M266.25,96.59l.38.56-.54.45v0a2.13,2.13,0,0,1,1.53.79,1.28,1.28,0,0,1,0,1.63,2.28,2.28,0,0,1,1.66.81c.56.83.28,1.59-.75,2.29L266,104.87l-.46-.68,2.46-1.67c.75-.5.92-1,.57-1.47a1.77,1.77,0,0,0-1.3-.59l-2.92,2-.46-.68,2.47-1.67c.75-.5.91-1,.56-1.47a1.78,1.78,0,0,0-1.3-.59l-2.91,2-.46-.68Z" transform="translate(-114.5 -12)"/></g></g></g></svg>