<svg id="svg2" xmlns="http://www.w3.org/2000/svg" viewBox="0 0 950 1795.24"><defs><style>.cls-1{opacity:0.16;}.cls-2,.cls-5{fill:#fff;}.cls-3{fill:none;stroke:#fff;stroke-miterlimit:10;stroke-width:2.15px;}.cls-4{fill:#99875f;}.cls-5{opacity:0.2;}.cls-6{fill:#5fa075;}.cls-7{isolation:isolate;}</style></defs><rect x="1.3" width="945.98" height="1979.16"/><g class="cls-1"><path id="estonia" class="cls-2" d="M542.11,423.14l-19.8-.7-12.55,7.67-.18,5.69,8.13,7.67L543,447.75l-.88-24.61Z"/><path class="cls-2" d="M724.21,380.57a232.48,232.48,0,0,1-65.61,162.2l-28.91-2.63-15.92-22.53L602,514.21l-12.1.67,5.27-9L595,500l-16.2-22.28-15.3-5.83-10-.92-.11-10.76-7.81-11.06-1.07-26,5.66-.11,8.52-5.63-9.43-6.63,1.27-6.65,18.61-29.49-25.75-60.45,2-20.87L537,291.91l-2.08-13.26,6.71-5.76L561.24,268l56.85,22.38,8,14.33-8.87,13.43-21.33-1.79-39.1-8.07v8.94l18.66,7.18,2.65,22.38,11.57,8.07h16l2.65-5.38-9.77-12.56,30.2.88-7.11-12.52L635,311l2.65,2.69,13.32,2.69v-9.87L643.83,294l-9.77-18.81,11.56-4.51,17.79,6.26v12.52l-5.35,12.51,17.79-2.67.89-17L697,271.06A232.15,232.15,0,0,1,724.21,380.57Z"/><path id="norway" class="cls-2" d="M533.94,276.35l7.14-5.23-.63-5.87-4.53-2.61.64-7.18h3.89v-3.93L523.58,247l-25.28,2.62-2.58,11.1-5.83-1.94L486,252.21l-12.34.63-1.31,12.41-5.83,2.62-3.25-6.54-25.95,20.89,5.19,5.87-9.72,4.56-22.06,43.77L403,341.65l.64,3.93,7.78,3.92L409.42,358l-13-.68-3.89-4.56-8.42,9.8L379,366.47l-1.31,9.16-4.53,2.61-11.66,2.62-5.84,18.31,3.89,30.05L364,442.94l5.2,5.23,11.66-.63,16.87-16.34,6.47-11.1,1.94,16.34,11-19.59.64-54.9,9-5.66L429.5,326l27.23-39.21,13-4.56,5.84-7.18L495,279.61l9.72,5.86L508,269.14l16.22-9.79,9.76,17Z"/><path class="cls-2" d="M321.18,535.75l-.63,3.25,4.52,2.61-1.35,1.8a232.8,232.8,0,0,1-55-91.15l1.19-4,14.27-10.46,4.6,4.52-6.46,9.79L284.9,456h14.93v6.54l-3.89,5.23,2.58,13.73,8.41,16.32,6.48,15,10.35,3.92,4.52,7.85-.64,7.17Z"/><path id="sweden" class="cls-2" d="M471.22,285l6.93,6.4h13l7.14,13.72,1.94,23.51L482.71,341v12.41l-12.34,17-7.14.64-9.72,16.33.64,15.7L471,415.51l-1.31,7.17-6.47,9.8L453.51,441l.64,28.11-14.92,5.23L434,485.4h-7.14L423,465.82l-16.23-24.89,13.33-22.31L421,363.5l9.19-5.05,2.23-31.54,26.2-37.51L471.22,285Z"/><path id="finland" class="cls-2" d="M503.29,328.68l7.32,3.21,4.52,8.49-4.52,5.87-22.7,24.82L484,384.15l5.2,19,17.5,13.08,23.33-11.1,18.81-2.62,17.5-28.11-13-30.72-12.34-29.41,1.94-19L535.21,294l-2-13.82-10.47-17.08-11.59,8-4.56,18.64-12.31-7.39-17.11-4.17-3.82,4.45,6.58,5.94,12-.21,9.66,15.59,1.73,24.75Z"/><path id="path302" class="cls-2" d="M543.17,450.4,519,446.48l.53,13.54,22.45,13.72,9.19-2.69-.53-10.32-7.42-10.33Z"/><path id="hiumaa" class="cls-2" d="M503.18,437.21,497.7,437l-3.18,3.22,2.3,3.39,5.48.35,2.83-4.1-1.95-2.69Z"/><path id="saaremaa" class="cls-2" d="M502.65,451.64l-5.3-.53-9.55,11.42v5.34L491,469.1l6.18.18,10.26-8.38,1.41-2.86-6.19-6.4Z"/><path id="lithuania" class="cls-2" d="M517.5,462.18l-7.6-.18-10.43,10h-8.84l.53,12.48-5.3,9.79,19.09.18,5.48-.71,5.48,6.61,12.55-.53,12-15.31-.71-9.08L517.5,462.18Z"/><path id="belarus" class="cls-2" d="M517,503.15l5.3,8.73-2.12,7,.36,5.51,1.94,6.61,11-6.22,13.61.36,9.55,3.92h24.22l7.07-16.93,4.24-6.4v-4.28L576.9,480l-13.44-5.34-11-1.24-9.54,3,.35,9.62-13.26,16.76-13.08.28Z"/><path id="poland" class="cls-2" d="M519.8,533.1l3,5.51.71,5.87L521,550.17l-5.66,10.89-4.77,2.16-6.19-2.69-3.71.18-9,3.39-10.25-3-16.62-11.77-16.26-8.73-6.54-10-1.24-23.51L453.51,496l16.62-5.52,6.18-.7-2.47,5,1.59,2,28,.53,6-.18,9.89,15.17-2.47,6.22,1.06,7.32,1.91,7.32Z"/><path class="cls-2" d="M381.82,571.28v11l-2.81,3.1A233.77,233.77,0,0,1,330.45,550l1-1.1,7.81-1.91,26,17,5.62,1Z"/><path id="netherlands" class="cls-2" d="M373.54,510.15l-16,7.88,3.4,3.08.35,7.88-3.39-.67-3.75-5.83-8.95,14.18,13.76,2.86,5.12,5.41,2.73.07,1.8-12.23,8.66-3.64-3.71-19Z"/><path id="belgium" class="cls-2" d="M343.56,539.32,341.3,545,365.62,561l7,1.66.25-7.6-6.12-6.86H363l-5.12-5.84-14.32-3.07Z"/><path id="germany" class="cls-2" d="M377.25,508.77l12.62-2v-8.91l10.57-1.73,5.8,5.83,6.12.67,9.54-4.13,8.52,2.4,7.5,6.51,1,24.36,7.5,10-9.86,1.38-16.37,10.28,1.38,3.43,14.63,13.72-1,6.86-13.61,6.86-12.63.35-3.07,6.51h-6.47l-3.08-6.86-11.24-2.76-.35-11.31-9.55-6.51,1-8.24-6.47-8.9,1.69-11.67,8.84-4.14-3-21.92Z"/><path id="denmark" class="cls-2" d="M397.16,450.86l-14.68,16.23L382,477.66l6.68,17.43,10.47-2-1.31-14.25L405,470.8l-.14-6.33-5.09-13.18-2.61-.43Z"/><path id="sjælland" class="cls-2" d="M413.67,479.64l-3.29-.14-4.32,4,.53,6.19,10.22.28.53-7-3.67-3.29Z"/><path id="gotland" class="cls-2" d="M473.94,446.16l-7.45,5.9,3.74,8.67,6.61-6.44-2.9-8.13Z"/><path class="cls-2" d="M407.61,596.14l-1.27,2h0a232.52,232.52,0,0,1-24.74-11.32l1.93-2,10,1.14,3.92,8,8.11.22Z"/><path id="czech" class="cls-2" d="M438.38,568.84H454l8.38,6,15.52-12.9-15.06-10.75L448,544l-10.22,1.84-13.86,8.91,14.5,14.14Z"/><path id="slovakia" class="cls-2" d="M464.58,576.83,467,579l.31,3.67,27-.6,19.94-8.59-.32-8.73-3.82,1.69-5.48-2.93-3.36-.14-8.83,3.53-12-2.89-15.83,12.83Z"/><path id="austria" class="cls-2" d="M410.8,587.4l-2.3,4.77,2,3.4,8.24-1.7h7l7.6,6.43,16.16-2.93,11.88-7.07,3-4.77-.46-6.16-10.68-8-14.32.15-1.2,8.13L422.68,587l-11.88.39Z"/><path id="hungary" class="cls-2" d="M467.76,585.56l-4.1,6.44.31,9.82,6.55,3.36,20.11.6,28-23.61.14-5.23-3-1.52-20.26,9.19-27.75.95Z"/><path id="slovenia" class="cls-2" d="M460.9,594l-9,5.38-16.76,3.67,3.36,9.69,11.74.14,10.82-9L460.9,594Z"/><path class="cls-2" d="M485.25,607.67l-1.94,6.12a232.54,232.54,0,0,1-27-2.41l7.48-6.16,5.75,2.89Z"/><path class="cls-2" d="M433.47,606.81a229.76,229.76,0,0,1-24-7.46l.49-.67,8.63-2.37,6.18.28,7.17,6Z"/><path class="cls-2" d="M574.06,598.66l5-9-12.25-16.37-8.56-2.86-8,6.6-28.56-1.4-4.47-2.84-.05-8.8,9.47-20-2.56-10.89,10.25-5.77L547,528l8.72,4,26.88-.36,5.91-14.59,13.11-.58,10.82,3.72,15.65,22.1,28.41,2.56A233.15,233.15,0,0,1,574.06,598.66Z"/><path id="moldova" class="cls-2" d="M552.64,578.88l11,16.86-.92,9.55,3.93.18,9.3-15.74-11.18-13.86-6.32-2.61-5.77,5.62Z"/><path class="cls-2" d="M560.5,596.55l-.25,6.88a232.41,232.41,0,0,1-50.81,9.77L501,600.77l20.47-17,.92-5.23,27.53,1.38Z"/><path class="cls-2" d="M506,613.44q-7.51.48-15.14.48c-1.49,0-3,0-4.46,0l1.74-5.42h3.53l7.25-5.45Z"/></g><path class="cls-3" d="M724.21,380.57a232.48,232.48,0,0,1-65.61,162.2c-.69.73-1.4,1.44-2.11,2.15a233.15,233.15,0,0,1-82.43,53.74c-1.46.54-2.9,1.09-4.37,1.61h0q-3.34,1.2-6.73,2.32l-2.69.84a232.41,232.41,0,0,1-50.81,9.77c-1.14.09-2.3.16-3.45.24q-7.51.48-15.14.48c-1.49,0-3,0-4.46,0-1,0-2.05-.06-3.08-.1a232.54,232.54,0,0,1-27-2.41c-1.19-.16-2.39-.35-3.58-.56-5.4-.87-10.74-2-16-3.21-1.09-.26-2.19-.52-3.27-.8a229.76,229.76,0,0,1-24-7.46c-1.06-.39-2.11-.8-3.16-1.21h0a232.52,232.52,0,0,1-24.74-11.32l-2.58-1.4A233.77,233.77,0,0,1,330.45,550c-2.28-2.15-4.54-4.37-6.73-6.63A232.63,232.63,0,0,1,257.5,380.57c0-128.9,104.48-233.38,233.35-233.38A233.26,233.26,0,0,1,724.21,380.57Z"/><path id="norway-2" data-name="norway" class="cls-4" d="M533.94,276.35l7.14-5.23-.63-5.87-4.53-2.61.64-7.18h3.89v-3.93L523.58,247l-25.28,2.62-2.58,11.1-5.83-1.94L486,252.21l-12.34.63-1.31,12.41-5.83,2.62-3.25-6.54-25.95,20.89,5.19,5.87-9.72,4.56-22.06,43.77L403,341.65l.64,3.93,7.78,3.92L409.42,358l-13-.68-3.89-4.56-8.42,9.8L379,366.47l-1.31,9.16-4.53,2.61-11.66,2.62-5.84,18.31,3.89,30.05L364,442.94l5.2,5.23,11.66-.63,16.87-16.34,6.47-11.1,1.94,16.34,11-19.59.64-54.9,9-5.66L429.5,326l27.23-39.21,13-4.56,5.84-7.18L495,279.61l9.72,5.86L508,269.14l16.22-9.79,9.76,17Z"/><path id="sweden-2" data-name="sweden" class="cls-4" d="M471.22,285l6.93,6.4h13l7.14,13.72,1.94,23.51L482.71,341v12.41l-12.34,17-7.14.64-9.72,16.33.64,15.7L471,415.51l-1.31,7.17-6.47,9.8L453.51,441l.64,28.11-14.92,5.23L434,485.4h-7.14L423,465.82l-16.23-24.89,13.33-22.31L421,363.5l9.19-5.05,2.23-31.54,26.2-37.51L471.22,285Z"/><path id="finland-2" data-name="finland" class="cls-4" d="M503.29,328.68l7.32,3.21,4.52,8.49-4.52,5.87-22.7,24.82L484,384.15l5.2,19,17.5,13.08,23.33-11.1,18.81-2.62,17.5-28.11-13-30.72-12.34-29.41,1.94-19L535.21,294l-2-13.82-10.47-17.08-11.59,8-4.56,18.64-12.31-7.39-17.11-4.17-3.82,4.45,6.58,5.94,12-.21,9.66,15.59,1.73,24.75Z"/><path class="cls-5" d="M879.77,951.8c-4.36-5.32-11.49-8.22-20.66-8.45a4.4,4.4,0,0,0-4.37-3.89h-88a4.4,4.4,0,0,0-4.4,4.4v51a26.23,26.23,0,0,0,14.76,23.69h0a8.59,8.59,0,0,0,7.92,11.89h51.46a8.59,8.59,0,0,0,7.91-11.89,26.22,26.22,0,0,0,14.41-19.37,30.85,30.85,0,0,0,18.7-12.73,39.72,39.72,0,0,0,6.09-13.11l0-.15C885.41,964.32,884.11,957.12,879.77,951.8Zm-9.07,18.69a27.59,27.59,0,0,1-4,8.33,18.5,18.5,0,0,1-7.6,6.45V956.54c3.31.12,8.12.82,10.41,3.61C871.26,962.24,871.65,965.72,870.7,970.49Z"/><circle class="cls-5" cx="208.41" cy="974.92" r="133.08"/><path class="cls-5" d="M725.74,1285.1c-4.35-5.32-11.48-8.23-20.66-8.46a4.39,4.39,0,0,0-4.36-3.88h-88a4.39,4.39,0,0,0-4.39,4.39v51a26.24,26.24,0,0,0,14.76,23.69h0a8.57,8.57,0,0,0,7.91,11.89h51.46a8.57,8.57,0,0,0,7.91-11.89,26.22,26.22,0,0,0,14.41-19.38,30.78,30.78,0,0,0,18.71-12.73,39.49,39.49,0,0,0,6.08-13.1l0-.15C731.38,1297.62,730.09,1290.42,725.74,1285.1Zm-9.07,18.69a27.42,27.42,0,0,1-4,8.33,18.5,18.5,0,0,1-7.6,6.45v-28.73c3.32.12,8.12.81,10.41,3.61C717.24,1295.54,717.62,1299,716.67,1303.79Z"/><path class="cls-5" d="M879.77,1285.1c-4.36-5.32-11.49-8.23-20.66-8.46a4.4,4.4,0,0,0-4.37-3.88h-88a4.39,4.39,0,0,0-4.4,4.39v51a26.25,26.25,0,0,0,14.76,23.69h0a8.59,8.59,0,0,0,7.92,11.89h51.46a8.59,8.59,0,0,0,7.91-11.89,26.22,26.22,0,0,0,14.41-19.38,30.76,30.76,0,0,0,18.7-12.73,39.62,39.62,0,0,0,6.09-13.1l0-.15C885.41,1297.62,884.11,1290.42,879.77,1285.1Zm-9.07,18.69a27.7,27.7,0,0,1-4,8.33,18.5,18.5,0,0,1-7.6,6.45v-28.73c3.31.12,8.12.81,10.41,3.61C871.26,1295.54,871.65,1299,870.7,1303.79Z"/><circle class="cls-5" cx="208.41" cy="1308.21" r="133.08"/><path class="cls-5" d="M725.74,1618.39c-4.35-5.32-11.48-8.22-20.66-8.45a4.39,4.39,0,0,0-4.36-3.89h-88a4.4,4.4,0,0,0-4.39,4.4v51a26.24,26.24,0,0,0,14.76,23.7h0a8.57,8.57,0,0,0,7.91,11.89h51.46a8.57,8.57,0,0,0,7.91-11.89,26.22,26.22,0,0,0,14.41-19.38,30.83,30.83,0,0,0,18.71-12.73,39.49,39.49,0,0,0,6.08-13.11l0-.14C731.38,1630.92,730.09,1623.71,725.74,1618.39Zm-9.07,18.69a27.31,27.31,0,0,1-4,8.33,18.45,18.45,0,0,1-7.6,6.46v-28.73c3.32.12,8.12.81,10.41,3.61C717.24,1628.84,717.62,1632.32,716.67,1637.08Z"/><path class="cls-5" d="M879.77,1618.39c-4.36-5.32-11.49-8.22-20.66-8.45a4.4,4.4,0,0,0-4.37-3.89h-88a4.4,4.4,0,0,0-4.4,4.4v51a26.26,26.26,0,0,0,14.76,23.7h0a8.5,8.5,0,0,0-.66,3.31,8.59,8.59,0,0,0,8.58,8.58h51.46a8.59,8.59,0,0,0,7.91-11.89,26.22,26.22,0,0,0,14.41-19.38,30.81,30.81,0,0,0,18.7-12.73,39.63,39.63,0,0,0,6.09-13.11l0-.14C885.41,1630.92,884.11,1623.71,879.77,1618.39Zm-9.07,18.69a27.59,27.59,0,0,1-4,8.33,18.45,18.45,0,0,1-7.6,6.46v-28.73c3.31.12,8.12.81,10.41,3.61C871.26,1628.84,871.65,1632.32,870.7,1637.08Z"/><circle class="cls-5" cx="208.41" cy="1641.51" r="133.08"/><path class="cls-6" d="M571.71,951.8c-4.35-5.32-11.48-8.22-20.65-8.45a4.4,4.4,0,0,0-4.37-3.89h-88a4.4,4.4,0,0,0-4.4,4.4v51A26.23,26.23,0,0,0,469,1018.57h0a8.59,8.59,0,0,0,7.91,11.89h51.47a8.59,8.59,0,0,0,7.91-11.89,26.22,26.22,0,0,0,14.41-19.37,30.87,30.87,0,0,0,18.7-12.73,40,40,0,0,0,6.09-13.11l0-.15C577.36,964.32,576.06,957.12,571.71,951.8Zm-9.06,18.69a27.74,27.74,0,0,1-4,8.33,18.48,18.48,0,0,1-7.59,6.45V956.54c3.31.12,8.12.82,10.41,3.61C563.21,962.24,563.59,965.72,562.65,970.49Z"/><path class="cls-6" d="M725.74,951.8c-4.35-5.32-11.48-8.22-20.66-8.45a4.39,4.39,0,0,0-4.36-3.89h-88a4.4,4.4,0,0,0-4.39,4.4v51a26.21,26.21,0,0,0,14.76,23.69h0a8.57,8.57,0,0,0,7.91,11.89h51.46a8.57,8.57,0,0,0,7.91-11.89,26.22,26.22,0,0,0,14.41-19.37,30.87,30.87,0,0,0,18.71-12.73,39.58,39.58,0,0,0,6.08-13.11l0-.15C731.38,964.32,730.09,957.12,725.74,951.8Zm-9.07,18.69a27.31,27.31,0,0,1-4,8.33,18.5,18.5,0,0,1-7.6,6.45V956.54c3.32.12,8.12.82,10.41,3.61C717.24,962.24,717.62,965.72,716.67,970.49Z"/><path class="cls-6" d="M766.73,939.46a4.4,4.4,0,0,0-4.4,4.39v51a26.23,26.23,0,0,0,14.76,23.69,8.59,8.59,0,0,0,7.92,11.89H799v-91Z"/><path class="cls-6" d="M612.7,1606.36a4.4,4.4,0,0,0-4.39,4.4v51a26.24,26.24,0,0,0,14.76,23.7,8.57,8.57,0,0,0,7.91,11.89h1.5v-91Z"/><path class="cls-6" d="M571.71,1285.1c-4.35-5.32-11.48-8.23-20.65-8.46a4.4,4.4,0,0,0-4.37-3.88h-88a4.39,4.39,0,0,0-4.4,4.39v51A26.25,26.25,0,0,0,469,1351.87h0a8.59,8.59,0,0,0,7.91,11.89h51.47a8.59,8.59,0,0,0,7.91-11.89,26.22,26.22,0,0,0,14.41-19.38,30.79,30.79,0,0,0,18.7-12.73,39.86,39.86,0,0,0,6.09-13.1l0-.15C577.36,1297.62,576.06,1290.42,571.71,1285.1Zm-9.06,18.69a27.85,27.85,0,0,1-4,8.33,18.48,18.48,0,0,1-7.59,6.45v-28.73c3.31.12,8.12.81,10.41,3.61C563.21,1295.54,563.59,1299,562.65,1303.79Z"/><path class="cls-6" d="M612.7,1272.75a4.4,4.4,0,0,0-4.39,4.4v51a26.24,26.24,0,0,0,14.76,23.7,8.57,8.57,0,0,0,7.91,11.89H656.9v-91Z"/><path class="cls-6" d="M571.71,1618.39c-4.35-5.32-11.48-8.22-20.65-8.45a4.4,4.4,0,0,0-4.37-3.89h-88a4.4,4.4,0,0,0-4.4,4.4v51a26.26,26.26,0,0,0,14.76,23.7h0a8.59,8.59,0,0,0,7.91,11.89h51.47a8.59,8.59,0,0,0,7.91-11.89,26.22,26.22,0,0,0,14.41-19.38,30.83,30.83,0,0,0,18.7-12.73,39.86,39.86,0,0,0,6.09-13.11l0-.14C577.36,1630.92,576.06,1623.71,571.71,1618.39Zm-9.06,18.69a27.74,27.74,0,0,1-4,8.33,18.43,18.43,0,0,1-7.59,6.46v-28.73c3.31.12,8.12.81,10.41,3.61C563.21,1628.84,563.59,1632.32,562.65,1637.08Z"/><path id="finland-3" data-name="finland" class="cls-4" d="M196.38,963l5.32,2.34,3.28,6.16-3.28,4.26-16.49,18-2.82,9.5,3.77,13.77,12.71,9.5,16.95-8.07,13.66-1.9,12.71-20.41-9.43-22.31-9-21.36,1.42-13.76-5.65-1-1.47-10-7.6-12.4-8.42,5.83-3.31,13.53-8.93-5.37-12.43-3-2.77,3.24,4.77,4.31,8.71-.15,7,11.32,1.26,18Z"/><path id="norway-3" data-name="norway" class="cls-4" d="M255.15,1260.92l5-3.7-.45-4.16-3.2-1.85.45-5.08h2.75v-2.78l-11.94-3.23L229.92,1242l-1.83,7.86-4.13-1.38-2.76-4.63-8.73.45-.93,8.79-4.13,1.85-2.3-4.63-18.37,14.79,3.68,4.16-6.89,3.23-15.62,31-5.5,3.7.45,2.78,5.5,2.78-1.37,6-9.19-.48-2.75-3.23-6,6.94-3.68,2.77-.93,6.49-3.2,1.85-8.26,1.85-4.13,13,2.75,21.27,3.21,9.72,3.68,3.7,8.26-.45,11.94-11.56,4.58-7.86,1.37,11.56,7.81-13.87.45-38.87,6.36-4,1.91-21.45,19.27-27.76,9.19-3.23,4.13-5.08,13.76,3.23,6.89,4.16,2.3-11.57,11.49-6.93,6.91,12Z"/><path id="sweden-3" data-name="sweden" class="cls-4" d="M212.37,1578l4.39,4.06H225l4.53,8.69,1.23,14.91-11.09,7.86v7.87l-7.82,10.77-4.53.41-6.16,10.35.4,9.95,10.69,7.87-.83,4.54-4.1,6.21-6.16,5.38.4,17.81-9.45,3.32-3.3,7h-4.52l-2.47-12.42-10.28-15.77L180,1662.7l.59-34.94,5.82-3.2,1.41-20,16.61-23.78,8-2.8Z"/><path class="cls-3" d="M342.55,976a133.66,133.66,0,0,1-37.71,93.23c-.4.42-.81.83-1.22,1.24a134.09,134.09,0,0,1-47.38,30.89c-.84.31-1.67.62-2.52.92h0c-1.27.46-2.56.91-3.86,1.33l-1.55.49a133,133,0,0,1-29.2,5.61c-.66.06-1.33.1-2,.14q-4.32.29-8.7.28l-2.57,0-1.77,0a134,134,0,0,1-15.5-1.39c-.69-.09-1.38-.2-2.06-.32-3.11-.5-6.18-1.13-9.21-1.85l-1.88-.46a133.21,133.21,0,0,1-13.77-4.28l-1.82-.7h0a132.34,132.34,0,0,1-14.21-6.51l-1.49-.8a134.37,134.37,0,0,1-27.91-20.34c-1.31-1.24-2.61-2.51-3.87-3.81A134.15,134.15,0,1,1,342.55,976Z"/><path class="cls-3" d="M342.55,1309.28a133.67,133.67,0,0,1-37.71,93.24c-.4.42-.81.83-1.22,1.23a134,134,0,0,1-47.38,30.9c-.84.31-1.67.62-2.52.92h0c-1.27.46-2.56.9-3.86,1.33l-1.55.48a133,133,0,0,1-29.2,5.62l-2,.14c-2.88.18-5.78.28-8.7.28l-2.57,0-1.77-.06a134,134,0,0,1-15.5-1.38c-.69-.1-1.38-.2-2.06-.32q-4.66-.77-9.21-1.85l-1.88-.46a130.86,130.86,0,0,1-13.77-4.29c-.61-.22-1.22-.46-1.82-.69h0a132.34,132.34,0,0,1-14.21-6.51l-1.49-.81a134,134,0,0,1-27.91-20.33c-1.31-1.24-2.61-2.52-3.87-3.82a134.15,134.15,0,1,1,230.21-93.6Z"/><path class="cls-3" d="M342.55,1642.52a133.66,133.66,0,0,1-37.71,93.23c-.4.42-.81.83-1.22,1.24a134.09,134.09,0,0,1-47.38,30.89c-.84.31-1.67.62-2.52.92h0c-1.27.46-2.56.91-3.86,1.33l-1.55.49a133,133,0,0,1-29.2,5.61c-.66.06-1.33.1-2,.14q-4.32.29-8.7.28l-2.57,0-1.77-.05a134,134,0,0,1-15.5-1.39c-.69-.09-1.38-.2-2.06-.32-3.11-.5-6.18-1.13-9.21-1.85l-1.88-.46a133.21,133.21,0,0,1-13.77-4.28l-1.82-.7h0a132.34,132.34,0,0,1-14.21-6.51l-1.49-.8a134.37,134.37,0,0,1-27.91-20.34c-1.31-1.24-2.61-2.51-3.87-3.81a134.15,134.15,0,1,1,230.21-93.6Z"/><path class="cls-6" d="M417.69,951.8c-4.35-5.32-11.48-8.22-20.66-8.45a4.4,4.4,0,0,0-4.37-3.89h-88a4.4,4.4,0,0,0-4.4,4.4v51A26.22,26.22,0,0,0,315,1018.57h0a8.42,8.42,0,0,0-.67,3.32,8.58,8.58,0,0,0,8.58,8.57h51.46a8.57,8.57,0,0,0,7.91-11.89,26.22,26.22,0,0,0,14.41-19.37,30.82,30.82,0,0,0,18.7-12.73,39.48,39.48,0,0,0,6.09-13.11l0-.15C423.33,964.32,422,957.12,417.69,951.8Zm-9.07,18.69a27.59,27.59,0,0,1-4,8.33,18.5,18.5,0,0,1-7.6,6.45V956.54c3.32.12,8.12.82,10.41,3.61C409.18,962.24,409.57,965.72,408.62,970.49Z"/><path class="cls-6" d="M417.69,1285.1c-4.35-5.32-11.48-8.23-20.66-8.46a4.4,4.4,0,0,0-4.37-3.88h-88a4.39,4.39,0,0,0-4.4,4.39v51A26.24,26.24,0,0,0,315,1351.87h0a8.37,8.37,0,0,0-.67,3.31,8.59,8.59,0,0,0,8.58,8.58h51.46a8.57,8.57,0,0,0,7.91-11.89,26.22,26.22,0,0,0,14.41-19.38,30.74,30.74,0,0,0,18.7-12.73,39.39,39.39,0,0,0,6.09-13.1l0-.15C423.33,1297.62,422,1290.42,417.69,1285.1Zm-9.07,18.69a27.7,27.7,0,0,1-4,8.33,18.5,18.5,0,0,1-7.6,6.45v-28.73c3.32.12,8.12.81,10.41,3.61C409.18,1295.54,409.57,1299,408.62,1303.79Z"/><path class="cls-6" d="M417.69,1618.39c-4.35-5.32-11.48-8.22-20.66-8.45a4.4,4.4,0,0,0-4.37-3.89h-88a4.4,4.4,0,0,0-4.4,4.4v51a26.25,26.25,0,0,0,14.77,23.7h0a8.33,8.33,0,0,0-.67,3.31,8.59,8.59,0,0,0,8.58,8.58h51.46a8.57,8.57,0,0,0,7.91-11.89,26.22,26.22,0,0,0,14.41-19.38,30.78,30.78,0,0,0,18.7-12.73A39.39,39.39,0,0,0,421.5,1640l0-.14C423.33,1630.92,422,1623.71,417.69,1618.39Zm-9.07,18.69a27.59,27.59,0,0,1-4,8.33,18.45,18.45,0,0,1-7.6,6.46v-28.73c3.32.12,8.12.81,10.41,3.61C409.18,1628.84,409.57,1632.32,408.62,1637.08Z"/><g class="cls-7"><g class="cls-7"><path class="cls-2" d="M261.91,724.83h-6.77v-3.5l17.7,0v3.5h-6.77l0,19.95h-4.16Z"/><path class="cls-2" d="M273,740.07c0-3.77,3.14-5.73,10.37-6.49-.05-1.89-.81-3.47-3.19-3.47a9.68,9.68,0,0,0-5,1.72l-1.52-2.76a13.75,13.75,0,0,1,7.24-2.29c4.4,0,6.56,2.72,6.55,7.63l0,10.43h-3.39l-.31-2h-.11a8.56,8.56,0,0,1-5.47,2.37A4.94,4.94,0,0,1,273,740.07Zm10.36,0v-4c-4.77.59-6.37,1.84-6.37,3.62,0,1.55,1,2.24,2.53,2.24S282,741.31,283.34,740.11Z"/><path class="cls-2" d="M291,742.64l8.33-12.11H292v-3.29l12.55,0v2.21l-8.33,12.1,8.58,0v3.28l-13.76,0Z"/><path class="cls-2" d="M306.72,740.14c0-3.77,3.14-5.73,10.37-6.48-.06-1.9-.81-3.48-3.19-3.48a9.75,9.75,0,0,0-5,1.72l-1.51-2.75a13.75,13.75,0,0,1,7.23-2.3c4.41,0,6.57,2.73,6.56,7.63l0,10.43h-3.38L317.5,743h-.12a8.51,8.51,0,0,1-5.47,2.37A4.94,4.94,0,0,1,306.72,740.14Zm10.35,0v-4c-4.78.6-6.37,1.84-6.37,3.62,0,1.55,1.05,2.24,2.53,2.24S315.77,741.38,317.07,740.18Z"/><path class="cls-2" d="M324.41,742.89l1.93-2.62a7.76,7.76,0,0,0,4.85,2c1.93,0,2.83-.9,2.83-2.1,0-1.48-1.9-2.14-3.78-2.87-2.3-.87-4.94-2.2-4.93-5.14s2.47-5.26,6.42-5.25a9.46,9.46,0,0,1,5.85,2.12l-1.9,2.53a6.59,6.59,0,0,0-3.86-1.54c-1.77,0-2.61.84-2.61,2,0,1.39,1.77,1.92,3.68,2.63,2.38.89,5,2,5,5.33,0,3-2.41,5.46-6.86,5.45A10.93,10.93,0,0,1,324.41,742.89Z"/><path class="cls-2" d="M347.72,736.17c0-5.73,3.62-9.24,7.48-9.23a6.44,6.44,0,0,1,4.61,1.95l-.15-2.85v-6.38h4.14L363.75,745h-3.38l-.32-1.9h-.11a7.36,7.36,0,0,1-5,2.32C350.54,745.4,347.71,742,347.72,736.17ZM359.63,740l0-8.21a5.26,5.26,0,0,0-3.58-1.47c-2.24,0-4.1,2.12-4.1,5.79,0,3.83,1.45,5.86,4,5.86A4.66,4.66,0,0,0,359.63,740Z"/><path class="cls-2" d="M367.85,736.22c0-5.73,4-9.25,8.14-9.24,4.76,0,7.27,3.46,7.26,8.38a10,10,0,0,1-.19,2l-11.18,0c.34,3.13,2.34,4.91,5.18,4.92a7.53,7.53,0,0,0,4.09-1.27l1.41,2.57a11,11,0,0,1-6.05,1.9C371.65,745.45,367.84,742,367.85,736.22Zm11.83-1.67c0-2.71-1.2-4.36-3.61-4.37-2.05,0-3.86,1.53-4.22,4.35Z"/><path class="cls-2" d="M393.2,736.27c0-5.87,4.17-9.24,8.86-9.23a7.51,7.51,0,0,1,5.14,2l-2,2.68a4.31,4.31,0,0,0-2.93-1.3c-2.84,0-4.81,2.34-4.81,5.87s1.92,5.86,4.66,5.86a5.84,5.84,0,0,0,3.65-1.51l1.67,2.73a8.66,8.66,0,0,1-5.76,2.15C396.87,745.5,393.19,742.11,393.2,736.27Z"/><path class="cls-2" d="M409.61,740.36c0-3.77,3.14-5.73,10.37-6.48-.05-1.9-.81-3.48-3.19-3.48a9.68,9.68,0,0,0-5,1.72l-1.51-2.75a13.69,13.69,0,0,1,7.23-2.3c4.4,0,6.56,2.73,6.55,7.63l0,10.43h-3.38l-.32-2h-.11a8.51,8.51,0,0,1-5.47,2.37A5,5,0,0,1,409.61,740.36Zm10.36,0v-4c-4.78.6-6.37,1.84-6.38,3.62,0,1.55,1.06,2.24,2.54,2.24S418.66,741.6,420,740.4Z"/><path class="cls-2" d="M427.42,727.71l2.59-.18h7.35v3.29l-9.94,0Zm2.37-2c0-3.65,1.7-6.33,5.86-6.32a9,9,0,0,1,3.22.63l-.79,3.08a5,5,0,0,0-1.91-.42c-1.46,0-2.24.92-2.24,3l-.05,19.51h-4.13Z"/><path class="cls-2" d="M438.91,736.37c0-5.72,4-9.24,8.14-9.24,4.76,0,7.27,3.46,7.26,8.38a10.84,10.84,0,0,1-.19,2l-11.18,0c.34,3.12,2.34,4.91,5.18,4.91a7.37,7.37,0,0,0,4.09-1.27l1.4,2.58a11,11,0,0,1-6,1.89C442.71,745.6,438.9,742.18,438.91,736.37Zm11.83-1.67c0-2.71-1.2-4.36-3.61-4.37-2.05,0-3.86,1.53-4.23,4.35Zm-5.8-12.1,5.3-6.25,2.84,2.75L447,724.64Z"/><path class="cls-2" d="M464.47,740.48c0-3.77,3.14-5.73,10.37-6.49-.06-1.89-.81-3.47-3.19-3.47a9.72,9.72,0,0,0-5,1.72l-1.51-2.76a13.75,13.75,0,0,1,7.23-2.29c4.41,0,6.57,2.72,6.56,7.63l0,10.43h-3.38l-.31-2h-.12a8.56,8.56,0,0,1-5.47,2.37A4.94,4.94,0,0,1,464.47,740.48Zm10.35,0v-4c-4.78.59-6.37,1.84-6.37,3.62,0,1.55,1.05,2.23,2.53,2.24S473.52,741.72,474.82,740.52Z"/><path class="cls-2" d="M483.91,740.72l0-20.79h4.13l0,21c0,1,.46,1.38.89,1.38a2.51,2.51,0,0,0,.65-.07l.5,3.08a5.79,5.79,0,0,1-2.18.36C485,745.69,483.91,743.79,483.91,740.72Z"/><path class="cls-2" d="M499.73,736.5c0-5.74,3.62-9.25,7.48-9.24a6.52,6.52,0,0,1,4.62,2l-.16-2.84,0-6.38h4.13l-.06,25.33h-3.38l-.31-1.91H512a7.38,7.38,0,0,1-5,2.33C502.55,745.73,499.72,742.31,499.73,736.5Zm11.91,3.85,0-8.2a5.17,5.17,0,0,0-3.58-1.47c-2.24,0-4.09,2.11-4.1,5.78,0,3.83,1.45,5.86,4,5.87A4.64,4.64,0,0,0,511.64,740.35Z"/><path class="cls-2" d="M521,722.76l5.31-6.24,2.83,2.74-6.08,5.54Zm0,5h4.13l0,17.62H521Z"/><path class="cls-2" d="M529.47,740.62c0-3.77,3.14-5.73,10.37-6.49-.06-1.89-.81-3.47-3.19-3.48a9.76,9.76,0,0,0-5,1.73l-1.51-2.76a13.75,13.75,0,0,1,7.23-2.29c4.41,0,6.57,2.72,6.56,7.63l0,10.43h-3.38l-.31-2h-.12a8.56,8.56,0,0,1-5.47,2.37A4.94,4.94,0,0,1,529.47,740.62Zm10.35,0v-4c-4.78.59-6.37,1.84-6.37,3.61,0,1.56,1,2.24,2.53,2.25S538.52,741.86,539.82,740.66Z"/><path class="cls-2" d="M556.11,727.8h3.39l.31,1.87h.11a8.51,8.51,0,0,1,5.32-2.29c4.4,0,6.92,3.54,6.9,9,0,6-3.62,9.5-7.53,9.49a7,7,0,0,1-4.53-2l.12,2.93v5.55h-4.13Zm11.79,8.6c0-3.51-1.14-5.6-3.82-5.6a5.6,5.6,0,0,0-3.85,2l0,8.2a5.48,5.48,0,0,0,3.53,1.47C566.09,742.45,567.89,740.39,567.9,736.4Z"/><path class="cls-2" d="M575.15,736.66c0-5.87,4-9.24,8.4-9.23s8.37,3.4,8.35,9.27-4,9.21-8.39,9.2S575.14,742.5,575.15,736.66Zm12.51,0c0-3.53-1.54-5.89-4.12-5.89s-4.13,2.34-4.14,5.87,1.53,5.85,4.12,5.86S587.65,740.22,587.66,736.69Z"/><path class="cls-2" d="M596,727.88h3.38l.31,3.14h.12c1.25-2.29,3.12-3.56,5-3.56a4.51,4.51,0,0,1,2,.36l-.72,3.59a6.07,6.07,0,0,0-1.81-.29c-1.41,0-3.1,1-4.17,3.63l0,10.75H596Z"/><path class="cls-2" d="M616.56,727.93h3.38l.32,1.88h.11a8.51,8.51,0,0,1,5.31-2.29c4.41,0,6.92,3.54,6.91,9,0,6-3.62,9.5-7.54,9.49a7,7,0,0,1-4.52-2l.12,2.93v5.55h-4.13Zm11.79,8.6c0-3.51-1.14-5.6-3.82-5.6a5.58,5.58,0,0,0-3.85,2l0,8.2a5.48,5.48,0,0,0,3.53,1.47C626.54,742.58,628.34,740.52,628.35,736.53Z"/><path class="cls-2" d="M635.6,736.79c0-5.72,4-9.24,8.14-9.24,4.76,0,7.26,3.46,7.25,8.38a11,11,0,0,1-.18,2l-11.18,0c.33,3.12,2.34,4.91,5.18,4.91a7.39,7.39,0,0,0,4.09-1.27l1.4,2.58a11,11,0,0,1-6,1.89C639.39,746,635.59,742.6,635.6,736.79Zm11.82-1.67c0-2.71-1.19-4.36-3.6-4.37-2.05,0-3.87,1.53-4.23,4.35Z"/><path class="cls-2" d="M655,728h3.38l.31,3.14h.12c1.26-2.29,3.12-3.57,5-3.56a4.51,4.51,0,0,1,2,.36l-.72,3.58a6.41,6.41,0,0,0-1.81-.29c-1.41,0-3.1,1-4.17,3.64l0,10.74h-4.13Z"/><path class="cls-2" d="M666.33,743.62l1.93-2.62a7.76,7.76,0,0,0,4.86,2c1.92,0,2.83-.9,2.83-2.1,0-1.48-1.91-2.14-3.78-2.86-2.31-.88-4.95-2.21-4.94-5.15s2.48-5.26,6.42-5.25a9.41,9.41,0,0,1,5.85,2.12l-1.9,2.53a6.59,6.59,0,0,0-3.85-1.54c-1.78,0-2.62.84-2.62,1.95,0,1.39,1.78,1.92,3.68,2.63,2.38.89,5.05,2.05,5,5.33,0,3-2.41,5.46-6.85,5.45A11,11,0,0,1,666.33,743.62Z"/><path class="cls-2" d="M682.39,736.89c0-5.87,4-9.24,8.39-9.24s8.37,3.41,8.36,9.28-4,9.21-8.4,9.2S682.37,742.73,682.39,736.89Zm12.5,0c0-3.53-1.53-5.89-4.11-5.89s-4.14,2.34-4.15,5.87,1.54,5.85,4.12,5.86S694.89,740.44,694.89,736.92Z"/><path class="cls-2" d="M703.25,728.11h3.38l.31,2.38h.12c1.58-1.53,3.38-2.8,5.79-2.8,3.77,0,5.41,2.57,5.4,7l0,11H714.1l0-10.52c0-2.89-.82-4-2.73-4-1.55,0-2.57.76-4,2.19l0,12.3h-4.13Z"/><path class="cls-2" d="M722.35,741c0-3.77,3.14-5.73,10.37-6.49-.05-1.89-.81-3.47-3.19-3.47a9.68,9.68,0,0,0-4.95,1.72L723.06,730a13.75,13.75,0,0,1,7.24-2.29c4.4,0,6.56,2.72,6.55,7.63l0,10.43h-3.38l-.32-1.95H733a8.56,8.56,0,0,1-5.47,2.37A4.94,4.94,0,0,1,722.35,741Zm10.36,0v-4c-4.78.59-6.37,1.84-6.38,3.62,0,1.55,1.06,2.24,2.54,2.24S731.4,742.27,732.71,741.07Z"/></g></g></svg>